<svg xmlns="http://www.w3.org/2000/svg" viewBox="0 0 209 79" aria-label="Timeout" class=""><path fill-rule="evenodd" d=""></path><path id="Vector" d="M29.3364 19.0052C34.8593 16.9997 35.5358 14.2566 35.4247 12.7534V6.11683C35.4247 3.74956 34.4291 2.32945 33.5944 1.55356C31.9262 0.0056294 29.8189 -0.0237698 29.2777 0.0056294H6.73168C6.13433 -0.0199351 4.02192 -0.00076176 2.34859 1.55356C1.51383 2.32945 0.518257 3.74956 0.518257 6.11683V12.8083C0.472307 13.9587 0.971372 16.8769 6.5683 18.9924C9.8218 20.2221 10.8033 20.5927 10.8033 26.0674V70.8207C10.7523 71.6732 10.7408 74.6272 12.7626 76.8206C13.656 77.7921 15.286 78.9489 17.9664 78.9489C20.6468 78.9489 22.2754 77.7985 23.1689 76.8219C25.1933 74.6247 25.1818 71.672 25.132 70.9037V26.0674C25.132 20.5301 26.1901 20.1454 29.3313 19.0052H29.3364ZM22.3444 26.0674V70.9907C22.3597 71.2463 22.4554 73.4755 21.119 74.925C20.6085 75.4849 19.6384 76.1534 17.9689 76.1534C16.2994 76.1534 15.3345 75.4849 14.8176 74.9238C13.485 73.4768 13.5782 71.2386 13.5961 70.9037V26.0674C13.5961 18.9898 11.5245 17.8765 7.55495 16.3759C3.3582 14.7896 3.30077 13.1049 3.3097 12.8633V6.11683C3.3097 4.75935 3.82025 4.00137 4.24529 3.60512C5.03792 2.86886 6.11263 2.79983 6.52363 2.79983H29.3428C29.5776 2.78961 30.8017 2.77682 31.6964 3.60512C32.1227 4.00137 32.632 4.75552 32.632 6.11683V12.8109C32.632 12.8531 32.632 12.8965 32.632 12.9387C32.7099 13.7836 31.6428 15.191 28.3791 16.3759C24.1849 17.9008 22.3444 19.2787 22.3444 26.0674Z"></path><path id="Vector_2" d="M102.962 55.2528C103.395 55.18 104.977 54.9793 109.256 54.9793C111.351 54.9793 113.164 54.1959 114.501 52.7108C117.51 49.3687 116.974 43.716 116.91 43.1805C116.872 42.2795 115.821 21.1216 102.782 21.0475C101.161 20.958 92.882 21.2507 88.3582 36.4235C88.2392 36.8223 88.1279 37.2197 88.0204 37.6159V35.8893C88.0399 35.4957 88.0339 35.1012 88.0025 34.7084C87.9424 28.4971 83.5797 21.574 77.8007 21.574C74.0483 21.574 70.9573 24.1301 69.2289 25.95C67.2753 22.213 63.8555 21.5344 62.113 21.7619C61.266 21.8066 58.9337 22.1964 55.4602 24.8151C53.797 21.9498 51.3585 21.5037 50.0049 21.5037C47.3182 21.5037 45.6858 22.6616 44.7902 23.6317C42.7611 25.8286 42.7739 28.7809 42.8238 29.5477V70.8014C42.7713 71.6539 42.7585 74.6061 44.7876 76.8082C45.6832 77.7795 47.3157 78.9361 50.0024 78.9361C52.6891 78.9361 54.3228 77.7859 55.2184 76.8095C57.2411 74.6189 57.2296 71.6973 57.181 70.9445V47.715C57.1899 47.6051 57.1925 47.4939 57.1912 47.3776C57.126 43.6713 57.4573 41.3133 57.8245 40.1362C58.2365 41.4142 58.5781 43.8757 58.5781 47.3967C58.5769 47.5098 58.5816 47.6228 58.5921 47.7354L58.5781 70.9126C58.5333 71.8149 58.5601 74.6368 60.4178 76.7749C61.2724 77.7616 62.832 78.9361 65.4074 78.9361C67.9828 78.9361 69.5449 77.7616 70.397 76.7762C72.2572 74.633 72.2828 71.7919 72.238 70.8794V47.6191C72.2478 47.5069 72.2512 47.3943 72.2482 47.2817C72.183 43.5754 72.5156 41.2174 72.8879 40.0404C73.2999 41.3184 73.6415 43.7799 73.6415 47.3009C73.6415 47.4159 73.6415 47.5284 73.6555 47.6396V70.8142C73.6018 71.6666 73.5903 74.6189 75.6181 76.821C76.5137 77.7923 78.1461 78.9489 80.8341 78.9489C83.5221 78.9489 85.1533 77.7987 86.0489 76.8222C88.0792 74.6253 88.0652 71.673 88.0153 70.9049V63.206C88.3326 64.4393 88.5808 65.1729 88.6217 65.2905C88.8034 65.8567 93.1763 78.9297 102.758 78.9297C110.522 78.9297 114.333 72.6213 115.235 69.2511C115.764 67.706 116.029 64.4905 113.674 62.2322C111.32 59.9739 108.315 60.3394 106.388 62.0558C105.691 62.7664 104.469 63.5588 104.068 63.5703C102.155 63.5703 101.838 60.4851 101.838 59.1112C101.838 56.4273 102.53 55.5327 102.745 55.3218C102.817 55.3027 102.888 55.2797 102.957 55.2528H102.962ZM83.9967 74.9065C83.485 75.4662 82.5127 76.1347 80.8392 76.1347C79.1658 76.1347 78.1973 75.4662 77.6805 74.9052C76.3435 73.4572 76.4382 71.2219 76.4561 70.8858V47.5501C76.4563 47.4626 76.452 47.3752 76.4433 47.2881C76.4433 41.9472 75.7755 38.5451 74.4577 37.1763C74.2736 36.9707 74.0485 36.8058 73.7969 36.692C73.5454 36.5782 73.2728 36.5181 72.9967 36.5155C72.6687 36.5144 72.3441 36.5821 72.0439 36.7142C71.7438 36.8463 71.4747 37.0399 71.2541 37.2824C69.6524 38.9438 69.3939 43.6585 69.463 47.3788C69.4564 47.4348 69.453 47.4912 69.4528 47.5475V70.8858C69.4528 70.9011 69.4605 70.9113 69.4617 70.9267C69.463 70.942 69.4541 70.9522 69.4553 70.9675C69.4694 71.2232 69.5602 73.4814 68.2949 74.9384C67.6079 75.7321 66.6394 76.1347 65.4189 76.1347C64.1984 76.1347 63.2299 75.7321 62.5429 74.9384C61.2801 73.484 61.3697 71.2513 61.3837 71.0008C61.3837 70.9867 61.3837 70.9752 61.3837 70.9599C61.3875 70.9473 61.3905 70.9345 61.3927 70.9215L61.4055 47.6536C61.4063 47.5657 61.4021 47.4778 61.3927 47.3903C61.3927 42.0494 60.7249 38.6473 59.4071 37.2798C59.2232 37.0739 58.9982 36.9086 58.7466 36.7946C58.495 36.6806 58.2223 36.6204 57.946 36.6178C57.6181 36.6168 57.2936 36.6846 56.9934 36.8167C56.6933 36.9488 56.4242 37.1422 56.2035 37.3846C54.6017 39.046 54.3433 43.762 54.4124 47.4811C54.4058 47.5367 54.4024 47.5926 54.4022 47.6485L54.4086 71.0366C54.4329 71.4366 54.4904 73.507 53.1842 74.9192C52.6724 75.479 51.7001 76.1474 50.0267 76.1474C48.3533 76.1474 47.386 75.479 46.8692 74.918C45.531 73.4699 45.6269 71.2347 45.6448 70.8985V29.4748C45.6295 29.2192 45.5335 26.9903 46.873 25.541C47.3848 24.98 48.3571 24.3128 50.0292 24.3128C51.4225 24.3128 52.5112 25.0797 53.2648 26.6133C53.2763 26.6363 53.3288 26.7488 53.3416 26.7718C53.4094 26.9175 53.4695 27.067 53.5335 27.2191C53.5865 27.3578 53.6612 27.4872 53.7548 27.6025C53.7842 27.637 53.8303 27.6856 53.861 27.7175C54.0695 27.9253 54.3379 28.0626 54.6286 28.1099C55.4269 28.2377 56.4108 27.6434 57.0927 27.1271C60.1466 24.8011 61.9467 24.5966 62.3765 24.571C62.5045 24.5544 65.5929 24.2106 67.0962 28C67.2759 28.4805 67.5162 28.9362 67.8113 29.356C67.9441 29.5341 68.1174 29.678 68.317 29.7758C68.5166 29.8737 68.7366 29.9225 68.9589 29.9184C69.1812 29.9143 69.3992 29.8573 69.5951 29.7521C69.7909 29.647 69.9587 29.4967 70.0848 29.3138C70.2984 29.0224 73.7592 24.3946 77.8122 24.3946C81.8653 24.3946 85.1866 30.0896 85.216 34.803C85.216 34.8388 85.216 34.8745 85.216 34.909C85.2411 35.2181 85.2467 35.5284 85.2326 35.8382V70.9982C85.248 71.2538 85.3439 73.4827 84.0044 74.932L83.9967 74.9065ZM102.016 52.6137C101.867 52.6367 101.723 52.6833 101.589 52.7517C100.798 53.1351 99.0435 54.5141 99.0435 59.1112C99.0435 65.9474 102.919 66.3666 104.073 66.3666C106.06 66.3666 108.186 64.2195 108.21 64.194C108.284 64.1301 110.035 62.613 111.74 64.2528C113.081 65.5397 112.884 67.4964 112.564 68.4409C111.827 71.1835 108.829 76.1385 102.763 76.1385C95.2015 76.1385 91.3302 64.5608 91.2815 64.4125C91.0986 63.8834 86.851 51.2781 91.0397 37.2248C94.8229 24.5454 101.092 23.8361 102.499 23.8361C102.582 23.8361 102.649 23.8361 102.695 23.8425C106.948 23.8655 110.143 26.9469 112.196 32.9971C113.873 37.9482 114.107 43.0834 114.125 43.3952C114.125 43.4438 114.653 48.3642 112.423 50.8423C111.622 51.7369 110.558 52.1843 109.262 52.1843C104.414 52.1843 102.737 52.4399 102.247 52.5434C102.17 52.5611 102.095 52.5846 102.022 52.6137"></path><path id="Vector_3" d="M41.2772 29.6065C41.3302 28.7548 41.3431 25.8016 39.2926 23.6018C38.3882 22.6311 36.7396 21.4724 34.0263 21.4724C31.313 21.4724 29.6644 22.6311 28.76 23.6057C26.7108 25.8055 26.7237 28.7586 26.7741 29.5273V70.8083C26.7211 71.6626 26.7082 74.617 28.7574 76.8194C29.6618 77.7914 31.3105 78.9489 34.0237 78.9489C36.737 78.9489 38.3856 77.7825 39.2901 76.8105C41.3405 74.6132 41.3276 71.6588 41.2772 70.8902V29.6065ZM37.2151 74.9138C36.6982 75.4739 35.7163 76.1428 34.0263 76.1428C32.3363 76.1428 31.3596 75.4739 30.8376 74.9125C29.4861 73.4634 29.583 71.2265 29.5998 70.8902V29.4377C29.5843 29.1819 29.4874 26.9489 30.8389 25.4985C31.3557 24.9396 32.3389 24.2707 34.0276 24.2707C35.7163 24.2707 36.6944 24.9396 37.2176 25.4985C38.5691 26.9501 38.4722 29.1858 38.4541 29.5221V70.9758C38.4696 71.2316 38.5665 73.4634 37.2138 74.9138"></path><path id="Vector_4" d="M138.358 63.3326C137.709 63.3313 137.073 63.1475 136.525 62.8027C135.977 62.458 135.541 61.9665 135.266 61.3859C133.524 57.6791 132.604 50.6298 132.604 40.9883C132.604 28.242 134.019 22.2229 135.206 19.4185C135.465 18.8063 135.902 18.2834 136.461 17.9155C137.021 17.5477 137.679 17.3514 138.351 17.3514C139.024 17.3514 139.681 17.5477 140.241 17.9155C140.801 18.2834 141.237 18.8063 141.496 19.4185C142.683 22.2229 144.099 28.2381 144.099 40.9883C144.099 50.608 143.184 57.6586 141.456 61.3731C141.183 61.9571 140.747 62.452 140.198 62.7992C139.65 63.1464 139.012 63.3315 138.36 63.3326H138.358ZM138.345 20.2327C138.249 20.2329 138.155 20.261 138.075 20.3135C137.995 20.366 137.933 20.4406 137.896 20.528C136.812 23.0844 135.518 28.7187 135.518 40.9883C135.518 53.2578 137.017 58.2747 137.911 60.1742C137.95 60.2571 138.013 60.3274 138.091 60.3767C138.169 60.4261 138.26 60.4524 138.353 60.4528C138.445 60.4515 138.536 60.4245 138.613 60.375C138.69 60.3255 138.752 60.2554 138.791 60.1729C139.679 58.2645 141.168 53.236 141.168 40.9883C141.168 28.7175 139.872 23.0933 138.791 20.528C138.754 20.4405 138.692 20.3658 138.612 20.3133C138.532 20.2607 138.438 20.2327 138.341 20.2327"></path><path id="Vector_5" d="M102.234 34.0521C102.234 34.0521 98.9844 34.0688 98.9844 39.1134C98.9844 43.8909 102.234 43.5917 102.234 43.5917C102.234 43.5917 105.491 43.8909 105.491 39.1134C105.491 34.0688 102.24 34.0521 102.24 34.0521H102.234ZM102.255 40.783H102.226C101.721 40.783 101.754 40.1961 101.754 38.6164C101.754 37.0368 102.226 36.9661 102.226 36.9661H102.255C102.255 36.9661 102.727 37.0355 102.727 38.6164C102.727 40.1974 102.757 40.783 102.255 40.783Z"></path><path id="Vector_6" d="M204.349 65.2377C204.06 65.1879 201.52 64.6049 201.518 59.7407V35.9822C201.518 35.9528 201.518 35.9234 201.518 35.8952C204.505 35.4465 207.356 33.0061 207.356 28.8386C207.356 24.4921 204.447 22.4199 201.515 21.8344V11.9717C201.566 11.1203 201.579 8.16602 199.553 5.97105C198.658 4.99949 197.027 3.84128 194.34 3.84C191.652 3.83873 190.021 4.99949 189.128 5.96977C187.1 8.16602 187.113 11.1191 187.163 11.8874V20.3822C187.135 20.5511 187.123 20.7223 187.127 20.8935L187.151 22.4634C185.939 23.0225 184.924 23.9368 184.243 25.0853C183.968 24.5493 183.624 24.0519 183.22 23.6062C182.325 22.6359 180.693 21.479 178.007 21.4777C175.32 21.4764 173.69 22.6359 172.794 23.6062C170.767 25.805 170.78 28.7568 170.83 29.5238V55.7369C170.813 55.8837 170.805 56.0314 170.806 56.1792V56.8363C170.806 57.0472 170.806 57.2441 170.806 57.4333V57.4435C170.806 57.896 170.794 58.2834 170.776 58.6222L170.77 58.8599C170.77 59.8596 170.514 60.6701 170.201 60.6701C169.888 60.6701 169.631 59.8596 169.631 58.8599L169.58 57.5291C169.58 57.5112 169.58 57.4946 169.58 57.4755V57.4601C169.551 56.6432 169.553 55.8494 169.554 55.3163C169.554 54.5173 169.554 53.7375 169.532 53.129V29.6069C169.573 28.9997 169.66 25.8626 167.572 23.5986C166.677 22.627 165.043 21.4713 162.361 21.4701C159.678 21.4688 158.044 22.6283 157.146 23.5986C156.517 24.2898 156.029 25.0982 155.712 25.9776C154.319 16.3003 151.375 9.41116 146.91 5.41624C143.023 1.94034 139.201 1.91733 138.343 1.96463C137.228 1.89815 133.577 1.97486 129.793 5.31141C123.313 11.0321 120.023 22.9057 120.023 40.6073C120.023 57.9727 123.293 69.6954 129.741 75.4507C133.27 78.6057 136.728 78.9458 138.052 78.9458C138.18 78.9458 138.277 78.9458 138.365 78.9458C139.498 78.9803 143.184 78.7885 146.99 75.3344C150.918 71.769 153.66 66.0022 155.197 58.1262V63.7868C155.161 65.2518 155.172 72.7546 158.931 76.6063C160.354 78.0649 162.09 78.823 164.091 78.8627C167.016 78.8627 169.333 78.3219 171.973 75.6795C173.204 77.7415 175.347 78.9215 178.015 78.9215C180.682 78.9215 182.33 77.7709 183.226 76.793C185.254 74.598 185.241 71.6437 185.191 70.8767V33.8319C185.759 34.4113 186.426 34.8838 187.162 35.2266C187.162 35.2778 187.162 35.3353 187.162 35.3992V61.2467C187.131 61.7823 187.152 62.3196 187.226 62.851C188.341 77.6712 197.512 78.823 200.267 78.823H200.489H200.512C201.173 78.823 202.887 78.7476 204.53 78.0394C207.063 76.9502 208.516 74.7808 208.516 72.0886C208.516 66.3845 205.549 65.3924 204.338 65.239L204.349 65.2377ZM145.097 73.257C141.92 76.141 138.967 76.1742 138.402 76.1423C138.355 76.1423 138.306 76.1423 138.259 76.1423C137.57 76.1806 134.654 76.1001 131.592 73.3644C125.775 68.1614 122.825 57.1392 122.825 40.6073C122.825 23.7456 125.795 12.5764 131.647 7.4105C134.363 5.01483 136.913 4.75148 137.949 4.75148C138.1 4.75148 138.222 4.75788 138.304 4.76299C138.333 4.76299 138.442 4.76299 138.47 4.76299C139.021 4.7272 141.907 4.69524 145.052 7.50894C150.894 12.7337 153.857 23.8721 153.857 40.6111C153.857 57.005 150.916 67.9914 145.105 73.2608L145.097 73.257ZM181.161 74.8933C180.65 75.4545 179.675 76.1218 178.004 76.1218C175.814 76.1218 174.369 75.0186 173.83 72.9323C173.767 72.6893 173.64 72.4678 173.462 72.2909C173.284 72.1141 173.062 71.9885 172.818 71.9275C172.708 71.899 172.594 71.8848 172.479 71.8853C172.286 71.8855 172.094 71.9258 171.917 72.0034C171.74 72.0811 171.58 72.1945 171.449 72.3366L171.27 72.5385C168.944 75.2231 167.008 76.0732 164.295 76.0732C164.255 76.0732 164.216 76.0732 164.176 76.0732C163.566 76.072 162.962 75.9446 162.403 75.6991C161.844 75.4536 161.341 75.0953 160.927 74.6466C158.46 72.1167 157.917 66.6682 157.986 63.8136V29.433C157.971 29.1774 157.874 26.9466 159.21 25.4995C159.728 24.9383 160.696 24.2697 162.368 24.2684C163.709 24.2684 164.772 24.6826 165.524 25.4969C166.865 26.9517 166.765 29.1799 166.747 29.5174V53.1827C166.772 53.8116 166.769 54.5505 166.769 55.3227C166.769 56.0756 166.786 56.7199 166.817 57.2811V59.4339C166.817 61.6455 168.338 63.4378 170.214 63.4378C172.089 63.4378 173.61 61.6481 173.61 59.4339V58.0546C173.62 57.6544 173.619 57.2364 173.61 56.8005V56.1012C173.61 56.0731 173.61 56.0437 173.61 56.0156C173.619 55.952 173.624 55.888 173.624 55.8238V29.433C173.608 29.1774 173.513 26.9479 174.849 25.4969C175.36 24.937 176.332 24.2697 178.006 24.2684C179.679 24.2671 180.646 24.937 181.161 25.4969C182.5 26.9466 182.403 29.1838 182.385 29.5187V70.9546C182.4 71.2103 182.497 73.4411 181.16 74.8882L181.161 74.8933ZM203.427 75.4686C202.239 75.9799 200.917 76.0247 200.523 76.0247H200.29C191.688 76.0247 190.248 65.7798 190.001 62.5442C189.946 62.1423 189.93 61.736 189.953 61.331V35.38C189.943 34.4596 189.747 33.7591 189.372 33.2989C189.186 33.0943 188.954 32.9373 188.695 32.8412C186.943 32.1867 186.054 30.8405 186.054 28.8399C186.054 26.7625 187.058 25.3474 188.958 24.7491C189.207 24.671 189.429 24.5248 189.599 24.3271C189.769 24.1294 189.88 23.8881 189.92 23.6305C189.94 23.4878 189.951 23.3439 189.953 23.1997L189.917 20.8283C189.941 20.7251 189.953 20.6197 189.953 20.5138V11.8004C189.938 11.5448 189.842 9.314 191.18 7.86432C191.692 7.3044 192.661 6.63709 194.335 6.63581C196.008 6.63453 196.984 7.30184 197.495 7.86305C198.833 9.31144 198.737 11.5473 198.718 11.8835V23.0642C198.718 23.4223 198.855 23.7667 199.101 24.0265C199.348 24.2863 199.685 24.4415 200.042 24.4602C201.4 24.533 204.56 25.1058 204.56 28.8386C204.56 31.8172 202.465 33.1736 200.519 33.1736C200.268 33.1742 200.021 33.2417 199.804 33.3692C198.909 33.9048 198.747 35.2803 198.718 35.9144V59.7395C198.718 66.8677 203.333 67.9006 203.933 68.0054C205.072 68.1473 205.723 69.6354 205.723 72.0873C205.723 73.6763 204.956 74.814 203.431 75.4686"></path></svg>
