<?xml version="1.0" encoding="UTF-8"?>
<svg id="a" xmlns="http://www.w3.org/2000/svg" version="1.1" viewBox="0 0 1004.72 1033.02">
  <!-- Generator: Adobe Illustrator 30.1.0, SVG Export Plug-In . SVG Version: 2.1.1 Build 136)  -->
  <defs>
    <style>
      .st0 {
        fill: #fff;
      }
    </style>
  </defs>
  <path class="st0" d="M979.4,194.82c17.77,13.37,23.1,37.73,12.54,57.32l-253.86,470.53c-7.27,13.47-20.87,22.32-36.11,23.51l-104.93,8.19,18.86,74.5c.9,3.53,1.32,7.06,1.32,10.53,0,2.37-.2,4.71-.58,7-.4,10.17-4.25,20.27-11.63,28.37l-97.77,107.28c-7.45,8.18-17.65,13.3-28.65,14.38l-292.12,28.78c-22.01,2.17-42.3-12.09-47.73-33.56L8.74,478.41c-3.73-14.76.27-30.4,10.63-41.53l76.86-82.55c7.5-8.04,17.06-12.6,26.91-13.87.48-.06.97-.11,1.46-.16.05,0,.09-.01.14-.02l254.24-24.66L524.62,45.9c7.4-13.7,20.69-21.88,34.83-23.43h.03l151.87-14.71c11.07-.98,22.12,2.17,31,8.85l237.05,178.22h0ZM855.59,279.02c9.17-16.98,4.58-38.08-10.79-49.63L587.62,36.03c-19.01-14.29-46.34-8.27-57.69,12.74l-241.59,447.4c-9.17,16.98-4.57,38.08,10.79,49.63l257.18,193.36c19.01,14.29,46.34,8.27,57.69-12.74l241.59-447.4h0ZM502.63,977.85l91.52-100.43c-4.67,2.43-9.89,4.04-15.51,4.59l-317.39,31.28c-21.05,2.07-40.46-11.58-45.66-32.11l-123.52-487.81c-.9-3.55-1.33-7.1-1.33-10.59,0-6.11,1.32-12.02,3.73-17.4l-70.53,75.76c-8.92,9.58-12.37,23.04-9.15,35.73l129.99,513.25c4.68,18.47,22.14,30.75,41.08,28.88l292.12-28.78c9.46-.93,18.24-5.34,24.65-12.37h0Z"/>
</svg>