<?xml version="1.0" encoding="UTF-8"?><svg id="uuid-f443088f-cd3c-4f72-9d9a-a8db567fc677" xmlns="http://www.w3.org/2000/svg" viewBox="0 0 400 400"><ellipse cx="200" cy="200" rx="104.73" ry="104.8" transform="translate(-82.84 200.46) rotate(-45.09)" fill="none"/><path d="M277.61,128.11c-.1-1.4.27-2.89,1.11-4.49.83-1.59,2.11-3.16,3.83-4.71,1.71-1.53,3.44-2.62,5.19-3.27,1.75-.65,3.35-.83,4.8-.55,1.45.28,2.63.93,3.55,1.95.39.44.71.91.96,1.41.25.5.41,1.03.48,1.58l-2.66,2.38-.08-.09c.27-.78.37-1.48.32-2.11-.06-.63-.27-1.16-.65-1.58-.59-.66-1.38-1-2.36-1.02-.98-.02-2.1.25-3.34.83s-2.52,1.45-3.82,2.62c-1.33,1.19-2.35,2.38-3.07,3.55-.71,1.17-1.09,2.25-1.13,3.23-.04.98.26,1.83.89,2.53.35.39.76.71,1.23.95.47.24.97.42,1.5.54l-1.06,1.46c-.99.04-1.82-.1-2.49-.4-.68-.3-1.25-.71-1.71-1.22-.9-1-1.4-2.2-1.49-3.6Z"/><path d="M284.86,136.7c.17-1.31.78-2.67,1.86-4.09s2.56-2.79,4.46-4.12c1.92-1.34,3.72-2.28,5.41-2.81,1.69-.54,3.18-.65,4.48-.34,1.3.31,2.32,1,3.07,2.08.76,1.09,1.06,2.29.9,3.61-.16,1.32-.78,2.68-1.86,4.09-1.08,1.41-2.58,2.78-4.49,4.12-1.9,1.33-3.7,2.25-5.39,2.78s-3.19.64-4.49.32c-1.3-.32-2.32-1.01-3.07-2.08-.75-1.07-1.04-2.26-.88-3.57ZM289.49,139.8c.85,0,1.89-.28,3.12-.83,1.23-.55,2.64-1.38,4.23-2.49,1.57-1.1,2.82-2.12,3.76-3.07.94-.95,1.55-1.83,1.84-2.63.29-.8.22-1.5-.19-2.08-.41-.59-1.04-.87-1.88-.84-.84.02-1.88.31-3.12.85s-2.63,1.36-4.18,2.44c-1.59,1.11-2.85,2.14-3.78,3.1s-1.55,1.83-1.85,2.62c-.3.79-.24,1.47.17,2.06s1.04.88,1.88.88Z"/><path d="M307.75,141.31l-.04-.08-11.75,5.79c-.6.3-1.13.58-1.57.84-.45.27-.86.54-1.25.83-.39.28-.74.58-1.05.9l-.11.06-1.52-3.09.11-.06c.44-.05.89-.15,1.36-.28.46-.13.93-.29,1.42-.47.49-.18,1.03-.42,1.63-.72l11.21-5.52c.57-.28,1.08-.56,1.54-.84.46-.29.88-.57,1.27-.85.39-.28.73-.58,1.02-.89l.11-.06,2.05,4.17-13.61,10.5.05.11,16.63-4.38,1.98,4.02-.11.06c-.44.05-.89.14-1.35.26-.46.12-.93.29-1.42.51-.49.22-1.04.48-1.64.77l-11.18,5.5c-.55.27-1.06.53-1.53.79-.47.25-.9.53-1.3.83-.39.3-.74.6-1.03.91l-.11.06-1.79-3.63.11-.05c.36-.04.69-.09,1-.16s.62-.17.96-.31c.39-.12.78-.27,1.18-.46.4-.19.81-.38,1.22-.59l11.75-5.78-.04-.08-17.56,4.63-1-2.04,14.37-11.19Z"/><path d="M316.02,156.99c.48-.23.93-.46,1.34-.7s.8-.5,1.15-.78l.12-.04,1.42,3.99-.12.04c-.45,0-.91.04-1.38.11-.48.07-.97.18-1.48.32-.51.15-1.07.33-1.68.55l-11.74,4.18c-.59.21-1.14.42-1.63.63s-.96.44-1.38.69-.8.51-1.13.79l-.12.04-1.42-3.99.12-.04c.43,0,.88-.04,1.37-.12.48-.08.99-.19,1.51-.32.52-.13,1.08-.3,1.68-.51l11.74-4.18c.61-.22,1.16-.44,1.64-.67Z"/><path d="M320.28,164.18l1.11-.76h.06s1.05,4.21,1.05,4.21l-14.49,8.96.03.12,11.15-2.77c.65-.16,1.23-.32,1.73-.48.5-.16.97-.34,1.39-.54.43-.2.82-.44,1.19-.7l.12-.03.84,3.4-.12.03c-.44-.04-.9-.05-1.37-.03s-.97.08-1.48.19c-.52.11-1.1.24-1.75.4l-16.69,4.14-.82-3.31,15.63-9.73-.02-.09-12.41,3.08c-.63.16-1.21.31-1.72.47-.51.16-.99.34-1.43.53-.44.2-.84.39-1.2.59l-.12.03-.83-3.34.12-.03c.42.05.88.05,1.35.02.48-.03.99-.09,1.52-.18s1.11-.21,1.75-.37l15.41-3.82Z"/><path d="M304.93,185.45c.81-1.2,2.01-2.2,3.62-2.99s3.47-1.3,5.61-1.54c2.13-.24,4.09-.12,5.88.36,1.79.48,3.25,1.27,4.37,2.36,1.12,1.09,1.77,2.41,1.94,3.96.08.69.07,1.37-.02,2.04-.09.67-.28,1.28-.55,1.84l-3.48.39-.02-.16c.7-.5,1.21-1.06,1.51-1.68.3-.62.41-1.26.34-1.93-.11-.98-.59-1.81-1.42-2.48-.84-.67-1.97-1.14-3.4-1.41-1.43-.27-3.03-.31-4.81-.1-1.74.2-3.24.55-4.52,1.07-1.28.52-2.26,1.14-2.95,1.86-.69.72-.99,1.51-.89,2.37.02.17.05.33.1.48.05.15.1.28.15.38l4.52-.51c.61-.07,1.16-.14,1.67-.22.51-.08,1-.19,1.47-.33.47-.14.89-.32,1.27-.56l.19-.02.48,4.2-.19.02c-.4-.12-.84-.21-1.35-.24-.5-.04-1.01-.04-1.52,0s-1.06.09-1.65.16l-5.42.62c-.48-.54-.9-1.14-1.24-1.8-.34-.66-.55-1.38-.64-2.15-.17-1.46.15-2.8.96-4Z"/><path d="M304.74,205.18c.26-.6.57-1.14.95-1.62l3.65.28v.16c-.88.33-1.55.78-2.02,1.35-.47.56-.73,1.22-.79,1.95-.04.54.04,1.05.25,1.52.21.47.55.83,1.02,1.09.48.26,1.03.41,1.66.46.73.06,1.36-.04,1.89-.3.53-.26,1.17-.69,1.94-1.31l1.63-1.49c.9-.75,1.83-1.33,2.78-1.73.95-.4,2-.56,3.15-.47,1.11.09,2.11.4,2.98.94.88.54,1.55,1.26,2.03,2.15.48.89.68,1.88.59,2.98-.05.65-.16,1.22-.32,1.72-.17.49-.4.94-.71,1.34l-3.46-.27v-.16c.64-.23,1.16-.57,1.56-1.02.4-.45.63-.99.68-1.59.04-.57-.04-1.08-.24-1.54-.21-.46-.54-.82-.99-1.09-.45-.27-.99-.43-1.59-.47-.73-.06-1.39.04-1.95.29-.57.25-1.21.7-1.94,1.34l-1.53,1.4c-.97.79-1.91,1.39-2.81,1.79-.91.4-1.94.56-3.09.47-1.22-.09-2.28-.41-3.19-.96-.91-.55-1.59-1.27-2.05-2.19-.46-.91-.64-1.91-.56-3.01.06-.75.22-1.43.47-2.04Z"/><path d="M304.5,217.16c1.06-.79,2.47-1.29,4.23-1.5,1.77-.21,3.79-.09,6.06.35,2.29.45,4.22,1.1,5.78,1.94,1.56.84,2.68,1.84,3.35,2.99s.89,2.37.63,3.65c-.25,1.3-.91,2.35-1.97,3.15-1.06.8-2.47,1.3-4.23,1.5-1.77.2-3.79.08-6.08-.37-2.27-.45-4.19-1.09-5.74-1.95-1.56-.85-2.67-1.86-3.35-3.01s-.89-2.37-.63-3.65c.25-1.28.91-2.32,1.96-3.11ZM305.48,222.65c.59.61,1.51,1.16,2.76,1.67,1.25.5,2.83.94,4.73,1.31,1.88.37,3.49.56,4.82.58,1.34.02,2.39-.15,3.17-.5.78-.35,1.23-.88,1.37-1.58.14-.7-.1-1.35-.7-1.94-.6-.59-1.53-1.14-2.78-1.66-1.25-.51-2.8-.95-4.66-1.32-1.9-.37-3.52-.56-4.86-.57-1.34,0-2.4.16-3.17.49-.77.33-1.23.85-1.37,1.55s.09,1.36.67,1.97Z"/><path d="M301.27,231.04c1.15-.64,2.62-.95,4.4-.92,1.78.03,3.76.42,5.96,1.16,2.21.75,4.03,1.65,5.47,2.7,1.43,1.04,2.41,2.18,2.92,3.41.51,1.23.56,2.47.14,3.7-.43,1.26-1.22,2.21-2.38,2.86-1.16.65-2.62.96-4.4.92-1.78-.04-3.77-.44-5.98-1.19-2.19-.75-4-1.65-5.43-2.7-1.43-1.05-2.4-2.2-2.92-3.43s-.56-2.47-.14-3.7c.42-1.24,1.21-2.17,2.36-2.82ZM301.5,236.61c.5.68,1.34,1.36,2.51,2.02,1.17.67,2.68,1.31,4.51,1.94,1.81.62,3.38,1.03,4.7,1.22,1.32.2,2.39.17,3.21-.07.82-.24,1.34-.71,1.57-1.38.23-.68.09-1.35-.43-2.01-.52-.67-1.36-1.34-2.53-2.01-1.17-.68-2.65-1.32-4.44-1.93-1.83-.63-3.41-1.03-4.74-1.22-1.33-.19-2.39-.17-3.2.06s-1.33.67-1.56,1.35c-.23.68-.1,1.36.4,2.04Z"/><path d="M314.65,251.16l1.34.14.06.03-1.96,3.89-16.83-2.62-.06.11,10.27,5.16c.6.3,1.14.56,1.63.76.48.21.95.37,1.41.5.46.12.91.2,1.36.24l.11.06-1.57,3.13-.11-.06c-.31-.32-.65-.63-1.02-.92-.37-.29-.79-.57-1.25-.82-.46-.25-.99-.53-1.59-.83l-15.37-7.72,1.53-3.05,18.2,2.78.04-.08-11.42-5.74c-.58-.29-1.12-.54-1.62-.76-.49-.21-.97-.39-1.43-.52-.46-.14-.89-.25-1.3-.33l-.11-.06,1.54-3.08.11.06c.29.31.63.61,1.01.9s.81.57,1.27.85.98.56,1.57.86l14.19,7.12Z"/><path d="M289.99,267.35c.64-.25,1.3-.33,2.01-.24s1.34.36,1.92.82c.6.46,1.03,1.02,1.3,1.67.27.65.36,1.32.26,2-.09.69-.37,1.33-.84,1.93-.44.56-.98.98-1.63,1.25-.65.27-1.31.35-1.99.25-.68-.1-1.33-.39-1.94-.87s-1.03-1.02-1.29-1.66c-.26-.64-.34-1.31-.25-1.99.09-.69.36-1.31.8-1.88.47-.6,1.02-1.02,1.65-1.28Z"/><path d="M271.79,277.77c1.4-.09,2.89.28,4.49,1.11s3.16,2.12,4.7,3.84c1.53,1.71,2.61,3.44,3.26,5.19.65,1.75.83,3.35.54,4.8-.28,1.45-.94,2.63-1.96,3.55-.44.39-.91.71-1.41.96-.5.25-1.03.41-1.58.48l-2.38-2.66.09-.08c.78.27,1.48.37,2.11.32.63-.05,1.16-.27,1.58-.65.66-.59,1-1.38,1.03-2.36.03-.98-.25-2.1-.83-3.34-.58-1.25-1.45-2.52-2.61-3.83-1.19-1.33-2.37-2.36-3.55-3.07s-2.25-1.09-3.23-1.13c-.98-.04-1.83.26-2.53.89-.39.35-.71.76-.95,1.23-.24.47-.42.97-.54,1.5l-1.46-1.07c-.03-.99.1-1.82.4-2.49.3-.68.71-1.25,1.23-1.71,1-.9,2.21-1.39,3.61-1.48Z"/><path d="M263.17,285.03c1.31.17,2.67.79,4.09,1.87,1.42,1.08,2.79,2.57,4.11,4.47,1.33,1.92,2.27,3.72,2.8,5.41.53,1.69.64,3.18.33,4.48-.32,1.3-1.01,2.32-2.08,3.06-1.09.76-2.29,1.05-3.61.89-1.32-.16-2.68-.78-4.09-1.87-1.41-1.08-2.78-2.58-4.11-4.5-1.32-1.9-2.24-3.7-2.77-5.4-.53-1.7-.63-3.19-.31-4.49.32-1.3,1.01-2.32,2.08-3.06,1.07-.75,2.26-1.03,3.57-.87ZM260.06,289.65c0,.85.27,1.89.82,3.12s1.38,2.64,2.48,4.23c1.09,1.57,2.11,2.83,3.06,3.77s1.83,1.56,2.63,1.84c.8.29,1.5.23,2.08-.18.59-.41.87-1.03.85-1.88-.02-.84-.3-1.88-.84-3.12s-1.35-2.63-2.43-4.19c-1.1-1.59-2.14-2.85-3.09-3.79-.96-.94-1.83-1.55-2.61-1.85-.79-.3-1.47-.25-2.06.16-.59.41-.88,1.04-.88,1.88Z"/><path d="M258.51,307.9l.09-.04-5.76-11.76c-.3-.6-.58-1.13-.84-1.57-.26-.45-.54-.86-.82-1.25-.28-.39-.58-.74-.9-1.05l-.05-.11,3.09-1.51.06.11c.05.44.14.89.28,1.36.13.46.29.94.47,1.42.18.49.42,1.03.71,1.64l5.49,11.23c.28.57.56,1.08.84,1.54.28.46.57.88.85,1.27s.58.73.89,1.02l.06.11-4.17,2.04-10.47-13.64-.11.06,4.34,16.64-4.03,1.97-.06-.11c-.05-.44-.14-.89-.26-1.35-.12-.46-.29-.93-.5-1.42-.22-.49-.47-1.04-.77-1.64l-5.48-11.2c-.27-.55-.53-1.06-.79-1.53s-.53-.9-.83-1.3c-.3-.39-.6-.74-.91-1.03l-.06-.11,3.63-1.78.06.11c.03.36.08.69.15,1,.07.3.17.62.31.96.12.39.27.78.46,1.18.18.4.38.81.58,1.23l5.76,11.76.09-.04-4.59-17.57,2.04-1,11.16,14.39Z"/><path d="M242.82,316.13c.23.48.46.93.69,1.34.24.42.5.8.77,1.15l.04.12-3.99,1.41-.04-.12c0-.45-.04-.91-.1-1.38-.07-.48-.17-.97-.32-1.48-.14-.51-.33-1.07-.54-1.68l-4.15-11.75c-.21-.6-.42-1.14-.63-1.64-.21-.5-.44-.96-.69-1.38-.25-.42-.51-.8-.78-1.13l-.04-.12,3.99-1.41.04.12c0,.43.03.88.11,1.37.08.48.19.99.32,1.51.13.52.3,1.08.51,1.68l4.15,11.75c.22.62.44,1.16.66,1.64Z"/><path d="M235.63,320.37l.76,1.11v.06s-4.22,1.04-4.22,1.04l-8.93-14.51-.12.03,2.74,11.16c.16.65.32,1.23.47,1.74.16.5.33.97.54,1.4.2.43.43.82.7,1.19l.03.12-3.4.83-.03-.12c.04-.45.05-.9.04-1.37-.02-.47-.08-.97-.19-1.48-.1-.52-.24-1.1-.4-1.76l-4.1-16.7,3.31-.81,9.7,15.65.09-.02-3.05-12.41c-.16-.63-.31-1.21-.47-1.72-.16-.51-.33-.99-.53-1.43-.19-.44-.39-.84-.59-1.2l-.03-.12,3.34-.82.03.12c-.05.42-.06.88-.03,1.35s.09.98.18,1.52c.09.53.21,1.11.36,1.75l3.79,15.42Z"/><path d="M214.36,304.97c1.2.81,2.19,2.02,2.97,3.62s1.29,3.48,1.53,5.61c.24,2.13.11,4.09-.38,5.88-.49,1.79-1.28,3.24-2.38,4.36s-2.42,1.76-3.96,1.93c-.69.08-1.37.07-2.04-.03-.67-.1-1.28-.28-1.84-.56l-.38-3.48.16-.02c.5.71,1.06,1.21,1.68,1.51.62.3,1.26.42,1.93.34.98-.11,1.81-.58,2.48-1.42.67-.84,1.14-1.97,1.42-3.39.28-1.43.32-3.03.12-4.81-.19-1.74-.54-3.24-1.06-4.52-.51-1.28-1.13-2.26-1.85-2.95-.72-.69-1.51-.99-2.37-.9-.17.02-.33.05-.48.1-.15.05-.28.1-.38.15l.5,4.52c.07.61.14,1.17.22,1.67.08.51.19,1,.32,1.47.14.47.32.9.55,1.27l.02.19-4.21.46-.02-.19c.13-.39.21-.84.25-1.35.04-.5.04-1.01,0-1.52s-.09-1.06-.15-1.65l-.6-5.43c.54-.48,1.14-.89,1.8-1.23.66-.34,1.38-.55,2.15-.64,1.46-.16,2.8.16,4,.97Z"/><path d="M194.67,304.72c.6.26,1.14.58,1.62.95l-.29,3.65h-.16c-.33-.88-.78-1.55-1.34-2.02-.57-.47-1.21-.73-1.95-.79-.55-.04-1.05.04-1.52.24-.47.21-.84.54-1.1,1.02-.26.47-.42,1.03-.46,1.66-.06.73.04,1.37.29,1.89.25.53.69,1.17,1.3,1.94l1.48,1.64c.75.9,1.33,1.83,1.73,2.78.4.95.55,2,.46,3.15-.09,1.11-.41,2.11-.95,2.98-.54.88-1.26,1.55-2.16,2.03-.89.48-1.89.67-2.98.58-.65-.05-1.22-.16-1.72-.33-.49-.17-.94-.4-1.34-.71l.28-3.46h.16c.22.64.56,1.16,1.01,1.57.45.41.99.63,1.59.68.57.05,1.08-.04,1.54-.24.46-.21.82-.54,1.09-.99.27-.45.43-.98.48-1.59.06-.73-.04-1.39-.29-1.95s-.7-1.22-1.33-1.94l-1.4-1.54c-.79-.97-1.38-1.91-1.79-2.82-.4-.91-.56-1.94-.47-3.09.1-1.22.42-2.28.97-3.18.55-.91,1.28-1.59,2.19-2.04.91-.45,1.92-.64,3.01-.55.76.06,1.43.22,2.04.48Z"/><path d="M182.65,304.45c.79,1.06,1.28,2.47,1.49,4.24.21,1.77.08,3.79-.37,6.06-.46,2.29-1.11,4.21-1.96,5.77-.85,1.56-1.85,2.67-3,3.34-1.15.67-2.37.88-3.65.62-1.3-.26-2.35-.92-3.15-1.98-.8-1.06-1.29-2.47-1.49-4.24-.19-1.77-.06-3.79.39-6.08.45-2.27,1.11-4.18,1.96-5.74.86-1.56,1.86-2.67,3.02-3.34,1.15-.67,2.37-.88,3.65-.62,1.28.26,2.31.91,3.1,1.97ZM177.16,305.42c-.61.59-1.17,1.5-1.68,2.75-.51,1.25-.95,2.83-1.33,4.72-.37,1.88-.57,3.48-.59,4.82-.02,1.34.14,2.39.49,3.17.35.78.88,1.24,1.58,1.38.7.14,1.35-.09,1.94-.69.59-.6,1.15-1.52,1.66-2.77.52-1.25.96-2.8,1.33-4.66.38-1.9.57-3.52.58-4.86,0-1.34-.15-2.4-.48-3.17-.33-.77-.84-1.23-1.55-1.37-.7-.14-1.36.08-1.97.67Z"/><path d="M168.8,301.19c.64,1.15.94,2.62.91,4.4-.03,1.78-.43,3.76-1.18,5.95-.76,2.21-1.66,4.03-2.71,5.46-1.05,1.43-2.19,2.4-3.42,2.91-1.23.51-2.47.55-3.7.13-1.25-.43-2.21-1.22-2.85-2.38-.65-1.16-.95-2.62-.91-4.4.04-1.78.44-3.77,1.21-5.98.75-2.19,1.66-4,2.72-5.42s2.2-2.39,3.44-2.91c1.23-.51,2.47-.55,3.7-.13,1.24.42,2.17,1.21,2.81,2.37ZM163.24,301.41c-.68.5-1.36,1.33-2.03,2.5-.67,1.17-1.32,2.67-1.95,4.5-.62,1.81-1.03,3.38-1.23,4.7-.2,1.32-.18,2.39.07,3.21s.7,1.34,1.38,1.58,1.35.09,2.02-.42c.67-.52,1.34-1.36,2.02-2.53.68-1.17,1.33-2.65,1.94-4.44.63-1.83,1.04-3.41,1.23-4.73.19-1.33.17-2.39-.05-3.2-.22-.81-.67-1.33-1.35-1.56-.68-.23-1.36-.1-2.04.4Z"/><path d="M148.65,314.52l-.15,1.34-.03.06-3.89-1.96,2.66-16.83-.11-.06-5.18,10.25c-.3.6-.56,1.14-.77,1.63s-.38.95-.5,1.41c-.12.46-.21.91-.25,1.36l-.06.11-3.13-1.58.06-.11c.32-.31.63-.65.92-1.02s.57-.79.82-1.25.54-.99.84-1.59l7.75-15.35,3.05,1.54-2.82,18.2.08.04,5.76-11.41c.29-.58.55-1.12.76-1.61.21-.49.39-.97.53-1.43s.25-.89.34-1.3l.06-.11,3.07,1.55-.06.11c-.31.29-.61.63-.9,1.01-.29.38-.57.81-.85,1.27-.28.46-.57.98-.86,1.56l-7.16,14.17Z"/><path d="M132.54,289.84c.25.64.33,1.31.24,2.01-.09.7-.37,1.34-.82,1.92-.47.6-1.02,1.03-1.67,1.3-.65.27-1.32.35-2,.26-.69-.1-1.33-.38-1.93-.84-.56-.44-.98-.99-1.25-1.63-.27-.65-.35-1.31-.25-2,.1-.68.4-1.33.88-1.94.46-.6,1.02-1.02,1.66-1.28s1.31-.34,2-.24c.69.1,1.31.36,1.88.8.6.47,1.02,1.02,1.27,1.65Z"/><path d="M122.11,271.59c.09,1.4-.28,2.89-1.12,4.48-.84,1.59-2.12,3.15-3.85,4.69-1.71,1.52-3.45,2.61-5.2,3.25s-3.35.82-4.8.53c-1.45-.29-2.63-.94-3.54-1.96-.39-.44-.71-.91-.96-1.41-.25-.5-.41-1.03-.48-1.58l2.66-2.37.08.09c-.27.77-.38,1.48-.33,2.1.05.63.27,1.16.65,1.58.59.66,1.37,1.01,2.35,1.03.98.03,2.1-.25,3.35-.82,1.25-.58,2.52-1.44,3.83-2.6,1.34-1.19,2.36-2.37,3.08-3.54.72-1.17,1.1-2.25,1.14-3.23.04-.98-.25-1.83-.88-2.53-.35-.39-.76-.71-1.23-.96-.47-.24-.97-.43-1.5-.55l1.07-1.46c.99-.03,1.82.1,2.49.4.67.3,1.24.71,1.71,1.23.9,1.01,1.39,2.21,1.48,3.61Z"/><path d="M114.89,262.98c-.17,1.31-.79,2.67-1.87,4.08-1.08,1.42-2.57,2.78-4.47,4.1-1.92,1.33-3.72,2.26-5.42,2.79-1.69.53-3.19.64-4.48.32s-2.32-1.01-3.06-2.09c-.75-1.09-1.05-2.29-.89-3.61.16-1.32.79-2.68,1.87-4.08,1.09-1.41,2.59-2.77,4.51-4.1,1.9-1.32,3.7-2.24,5.4-2.76s3.19-.62,4.49-.31c1.3.32,2.32,1.01,3.06,2.09.74,1.07,1.03,2.26.86,3.57ZM110.27,259.86c-.85,0-1.89.27-3.12.82-1.23.55-2.64,1.37-4.24,2.47-1.57,1.09-2.83,2.11-3.78,3.06-.94.95-1.56,1.82-1.85,2.62-.29.8-.23,1.5.18,2.08.41.59,1.03.87,1.88.85.84-.02,1.88-.3,3.12-.84,1.24-.54,2.64-1.35,4.19-2.43,1.59-1.1,2.86-2.13,3.79-3.09.94-.96,1.56-1.83,1.86-2.61.3-.78.25-1.47-.16-2.06-.41-.59-1.04-.88-1.88-.89Z"/><path d="M92,258.25l.04.09,11.77-5.74c.61-.29,1.13-.57,1.58-.84.45-.26.86-.54,1.25-.82.39-.28.74-.58,1.05-.9l.11-.05,1.51,3.09-.11.06c-.44.05-.89.14-1.36.28-.46.13-.94.29-1.42.46-.49.18-1.03.42-1.64.71l-11.23,5.48c-.57.28-1.08.56-1.54.84-.46.28-.88.57-1.27.85-.39.28-.73.58-1.03.89l-.11.06-2.03-4.17,13.65-10.45-.05-.11-16.64,4.32-1.96-4.03.11-.05c.44-.05.89-.14,1.35-.25.46-.12.93-.29,1.42-.5.49-.22,1.04-.47,1.65-.77l11.21-5.46c.55-.27,1.06-.53,1.53-.78.47-.25.91-.53,1.3-.83.39-.3.74-.6,1.03-.91l.11-.06,1.77,3.63-.11.06c-.36.03-.69.08-1,.15-.31.07-.62.17-.96.31-.39.12-.78.27-1.18.45-.4.19-.81.38-1.23.58l-11.77,5.74.04.08,17.58-4.56,1,2.04-14.41,11.13Z"/><path d="M83.81,242.59c-.48.22-.93.45-1.35.69-.42.24-.8.5-1.15.77l-.12.04-1.41-3.99.12-.04c.45,0,.91-.03,1.39-.1.48-.07.97-.17,1.48-.32.51-.15,1.07-.33,1.68-.54l11.76-4.14c.6-.21,1.14-.42,1.64-.63.5-.21.96-.44,1.38-.69.43-.25.8-.51,1.13-.78l.12-.04,1.41,3.99-.12.04c-.43,0-.88.03-1.37.11-.48.08-.99.19-1.51.32s-1.08.3-1.68.51l-11.76,4.14c-.62.22-1.16.44-1.64.66Z"/><path d="M79.57,235.34l-1.12.76h-.06s-1.03-4.22-1.03-4.22l14.52-8.91-.03-.12-11.16,2.72c-.66.16-1.23.32-1.74.47-.5.16-.97.33-1.4.54-.43.2-.82.43-1.19.7l-.12.03-.83-3.4.12-.03c.44.04.9.06,1.37.04.47-.02.97-.08,1.48-.18.52-.1,1.1-.24,1.75-.4l16.71-4.08.81,3.31-15.67,9.68.02.09,12.42-3.03c.63-.16,1.21-.31,1.72-.47.51-.16.99-.33,1.43-.53.44-.19.84-.39,1.2-.59l.12-.03.82,3.34-.12.03c-.42-.05-.88-.06-1.36-.03-.48.03-.98.09-1.52.17-.53.09-1.11.21-1.75.36l-15.42,3.76Z"/><path d="M94.99,214.13c-.81,1.2-2.02,2.19-3.63,2.97s-3.48,1.29-5.61,1.52c-2.13.23-4.09.1-5.88-.39-1.79-.49-3.24-1.29-4.36-2.38-1.11-1.09-1.76-2.42-1.93-3.97-.08-.69-.06-1.37.03-2.04.1-.67.28-1.28.56-1.84l3.48-.38.02.16c-.71.5-1.21,1.06-1.52,1.67-.3.62-.42,1.26-.34,1.93.11.98.58,1.81,1.42,2.48.83.67,1.97,1.14,3.39,1.42,1.43.28,3.03.32,4.81.12,1.74-.19,3.24-.54,4.52-1.05,1.28-.51,2.26-1.13,2.96-1.85.69-.72.99-1.51.9-2.37-.02-.17-.05-.33-.1-.48-.05-.15-.1-.28-.15-.38l-4.52.5c-.61.07-1.17.14-1.67.22-.51.08-1,.19-1.47.32-.47.14-.9.32-1.27.55l-.19.02-.46-4.21.19-.02c.4.13.84.21,1.35.25.5.04,1.01.04,1.52,0s1.06-.08,1.65-.15l5.43-.59c.48.54.89,1.14,1.23,1.8.34.66.55,1.38.63,2.15.16,1.46-.16,2.8-.97,4Z"/><path d="M95.26,194.45c-.26.6-.58,1.14-.96,1.62l-3.65-.3v-.16c.88-.33,1.55-.78,2.02-1.34.47-.56.73-1.21.79-1.95.04-.55-.04-1.05-.24-1.52-.2-.47-.54-.84-1.02-1.1-.47-.26-1.03-.42-1.66-.47-.73-.06-1.36.04-1.89.29-.53.25-1.17.69-1.94,1.3l-1.64,1.48c-.9.75-1.83,1.33-2.78,1.72-.95.4-2,.55-3.16.46-1.11-.09-2.1-.41-2.98-.95s-1.55-1.27-2.03-2.16c-.48-.89-.67-1.89-.58-2.98.05-.65.16-1.22.33-1.72.17-.49.4-.94.71-1.34l3.46.28v.16c-.64.22-1.16.56-1.57,1.01-.41.45-.63.98-.68,1.59-.04.57.04,1.08.24,1.54.21.46.54.83.99,1.09.45.27.98.43,1.59.48.73.06,1.39-.03,1.96-.28.57-.25,1.22-.69,1.94-1.33l1.54-1.4c.97-.79,1.91-1.38,2.82-1.78.91-.4,1.94-.56,3.09-.46,1.22.1,2.28.42,3.18.97.91.55,1.59,1.28,2.04,2.19.45.91.64,1.92.55,3.01-.06.75-.22,1.43-.48,2.04Z"/><path d="M95.54,182.43c-1.06.79-2.47,1.28-4.24,1.49-1.77.2-3.79.08-6.06-.38-2.29-.46-4.21-1.11-5.77-1.96-1.56-.85-2.67-1.85-3.34-3s-.88-2.37-.62-3.65c.26-1.3.92-2.35,1.98-3.15,1.06-.8,2.47-1.29,4.24-1.49s3.79-.06,6.08.4c2.27.45,4.18,1.11,5.74,1.97s2.67,1.87,3.34,3.02c.67,1.16.88,2.37.62,3.65-.26,1.28-.91,2.31-1.97,3.1ZM94.58,176.94c-.59-.61-1.5-1.17-2.75-1.68-1.25-.51-2.82-.95-4.72-1.33-1.88-.38-3.48-.57-4.82-.6-1.34-.02-2.39.14-3.17.49-.78.35-1.24.88-1.38,1.58-.14.7.09,1.35.69,1.94.6.59,1.52,1.15,2.77,1.67,1.25.52,2.8.96,4.66,1.33,1.9.38,3.52.58,4.85.58,1.34.01,2.4-.15,3.17-.48.77-.33,1.23-.84,1.37-1.54.14-.7-.08-1.36-.67-1.97Z"/><path d="M98.81,168.59c-1.15.64-2.62.94-4.4.9-1.78-.04-3.76-.43-5.95-1.18-2.21-.76-4.03-1.67-5.46-2.72-1.43-1.05-2.4-2.19-2.91-3.43-.51-1.23-.55-2.47-.12-3.7.43-1.25,1.23-2.2,2.38-2.85,1.16-.65,2.63-.95,4.4-.9,1.78.05,3.77.45,5.97,1.21,2.19.75,4,1.66,5.42,2.72s2.39,2.21,2.9,3.44c.51,1.23.55,2.47.12,3.7-.43,1.24-1.22,2.17-2.37,2.81ZM98.6,163.02c-.5-.68-1.33-1.36-2.5-2.03-1.17-.67-2.67-1.32-4.5-1.95-1.81-.62-3.38-1.04-4.7-1.24-1.32-.2-2.39-.18-3.21.06-.82.24-1.34.7-1.58,1.38-.23.68-.09,1.35.42,2.02.52.67,1.36,1.34,2.52,2.02,1.17.68,2.65,1.33,4.44,1.95,1.83.63,3.41,1.04,4.73,1.23,1.33.19,2.39.18,3.2-.05.81-.22,1.33-.67,1.57-1.35.23-.68.1-1.36-.4-2.04Z"/><path d="M85.51,148.42l-1.34-.15-.06-.03,1.97-3.89,16.82,2.68.06-.11-10.25-5.19c-.6-.3-1.14-.56-1.63-.77-.48-.21-.95-.38-1.41-.5-.46-.12-.91-.21-1.36-.25l-.11-.06,1.58-3.13.11.06c.31.32.65.63,1.02.92.37.29.79.57,1.25.83.46.26.99.54,1.59.84l15.34,7.77-1.54,3.04-18.19-2.84-.04.08,11.4,5.78c.58.29,1.12.55,1.61.76.49.21.97.39,1.43.53.46.14.89.25,1.3.34l.11.06-1.56,3.07-.11-.06c-.29-.31-.63-.61-1.01-.9-.38-.29-.81-.57-1.27-.85s-.98-.57-1.56-.86l-14.16-7.17Z"/><path d="M110.22,132.31c-.64.25-1.3.33-2.01.23-.7-.09-1.34-.37-1.92-.82-.6-.47-1.03-1.03-1.29-1.67-.27-.65-.35-1.32-.25-2,.1-.69.38-1.33.85-1.92.44-.56.99-.98,1.64-1.24.65-.27,1.31-.35,1.99-.24.68.11,1.33.4,1.94.88.6.47,1.02,1.02,1.28,1.67.26.64.34,1.31.24,2-.1.69-.37,1.31-.81,1.87-.47.6-1.02,1.02-1.66,1.27Z"/><path d="M128.46,121.95c-1.4.09-2.89-.29-4.48-1.13-1.59-.84-3.15-2.13-4.69-3.86-1.52-1.71-2.6-3.45-3.24-5.2s-.82-3.36-.53-4.81c.29-1.45.95-2.63,1.97-3.54.44-.39.91-.71,1.41-.96.5-.25,1.03-.4,1.58-.48l2.37,2.67-.09.08c-.77-.27-1.48-.38-2.1-.33s-1.16.27-1.58.64c-.66.59-1.01,1.37-1.04,2.35-.03.98.24,2.1.81,3.35.57,1.25,1.44,2.53,2.6,3.83,1.19,1.34,2.37,2.37,3.54,3.08,1.17.72,2.25,1.1,3.23,1.14.98.04,1.83-.25,2.53-.88.39-.35.71-.76.96-1.23.24-.47.43-.97.55-1.5l1.46,1.07c.03.99-.11,1.82-.41,2.49-.3.68-.71,1.24-1.23,1.71-1.01.89-2.21,1.38-3.61,1.47Z"/><path d="M137.1,114.73c-1.31-.17-2.67-.8-4.08-1.88-1.41-1.08-2.78-2.58-4.09-4.48-1.33-1.92-2.25-3.73-2.78-5.42-.53-1.69-.63-3.19-.31-4.48.32-1.29,1.02-2.31,2.09-3.05,1.09-.75,2.29-1.05,3.61-.88,1.32.17,2.67.79,4.08,1.88,1.41,1.09,2.77,2.6,4.09,4.52,1.31,1.91,2.23,3.71,2.75,5.41.52,1.7.62,3.2.3,4.49-.32,1.3-1.02,2.31-2.09,3.05-1.07.74-2.27,1.03-3.57.85ZM140.23,110.12c0-.85-.26-1.89-.81-3.12-.54-1.23-1.37-2.65-2.47-4.24-1.09-1.58-2.1-2.83-3.05-3.78-.95-.94-1.82-1.56-2.62-1.85s-1.5-.23-2.09.17c-.59.41-.87,1.03-.85,1.88.02.84.3,1.88.83,3.12.54,1.24,1.34,2.64,2.42,4.2,1.1,1.59,2.13,2.86,3.08,3.8.95.94,1.82,1.56,2.61,1.86.78.3,1.47.25,2.06-.16.59-.41.88-1.03.89-1.88Z"/><path d="M141.87,91.86l-.08.04,5.71,11.79c.29.61.57,1.13.83,1.58.26.45.53.86.82,1.25.28.39.58.74.9,1.05l.06.11-3.1,1.5-.06-.11c-.05-.44-.14-.9-.27-1.36-.13-.46-.29-.94-.46-1.42-.18-.49-.41-1.03-.71-1.64l-5.45-11.25c-.27-.57-.55-1.08-.83-1.54s-.56-.88-.84-1.27c-.28-.39-.58-.73-.88-1.03l-.05-.11,4.18-2.03,10.42,13.68.11-.05-4.28-16.65,4.03-1.96.06.11c.05.44.13.89.25,1.35.12.46.28.93.5,1.42.21.49.47,1.04.76,1.65l5.44,11.22c.27.55.53,1.06.78,1.54.25.47.53.91.82,1.3.3.39.6.74.91,1.03l.05.11-3.64,1.76-.05-.11c-.03-.36-.08-.69-.15-1-.07-.31-.17-.62-.31-.96-.12-.39-.27-.78-.45-1.18-.18-.4-.38-.81-.58-1.23l-5.71-11.79-.08.04,4.52,17.59-2.05.99-11.1-14.43Z"/><path d="M157.55,83.7c-.22-.48-.45-.93-.69-1.35-.24-.42-.49-.8-.77-1.15l-.04-.12,3.99-1.4.04.12c0,.45.03.91.1,1.39.07.48.17.97.31,1.48.14.51.32,1.07.54,1.68l4.11,11.77c.21.6.42,1.14.62,1.64.21.5.44.96.68,1.38.25.43.51.8.78,1.13l.04.12-3.99,1.4-.04-.12c0-.42-.03-.88-.11-1.37-.08-.48-.18-.99-.31-1.51-.13-.52-.3-1.08-.5-1.68l-4.11-11.77c-.22-.62-.44-1.16-.66-1.64Z"/><path d="M164.81,79.48l-.76-1.11v-.06s4.22-1.02,4.22-1.02l8.87,14.54.12-.03-2.7-11.17c-.16-.65-.31-1.23-.47-1.74-.15-.5-.33-.97-.53-1.4-.2-.43-.43-.83-.7-1.2l-.03-.12,3.41-.82.03.12c-.04.44-.06.9-.04,1.37.02.47.08.97.18,1.48s.23,1.1.39,1.76l4.04,16.72-3.32.8-9.64-15.69-.09.02,3,12.42c.15.63.31,1.21.47,1.72.16.51.33.99.52,1.43.19.44.39.84.58,1.21l.03.12-3.35.81-.03-.12c.05-.42.06-.88.03-1.35-.03-.48-.09-.99-.17-1.52-.09-.53-.21-1.11-.36-1.75l-3.73-15.43Z"/><path d="M186.01,94.95c-1.2-.81-2.19-2.03-2.96-3.63-.77-1.61-1.28-3.48-1.5-5.62-.23-2.13-.09-4.09.4-5.88s1.29-3.24,2.39-4.35c1.1-1.11,2.42-1.75,3.97-1.92.69-.07,1.37-.06,2.04.04.67.1,1.28.29,1.84.57l.37,3.48-.16.02c-.5-.71-1.06-1.21-1.67-1.52-.61-.31-1.26-.42-1.93-.35-.98.1-1.81.57-2.49,1.41-.67.83-1.15,1.96-1.43,3.39-.28,1.43-.33,3.03-.14,4.81.18,1.74.53,3.24,1.04,4.52.51,1.28,1.12,2.26,1.84,2.96.72.69,1.51,1,2.37.91.17-.02.33-.05.48-.1.15-.05.28-.1.38-.15l-.48-4.52c-.07-.61-.14-1.16-.21-1.67s-.18-1-.32-1.47c-.13-.47-.32-.9-.55-1.28l-.02-.19,4.21-.45.02.19c-.13.39-.21.84-.25,1.34-.04.5-.04,1.01-.01,1.52.03.52.08,1.07.14,1.65l.58,5.43c-.54.48-1.14.89-1.81,1.22-.66.33-1.38.54-2.16.63-1.46.16-2.8-.17-4-.99Z"/><path d="M205.7,95.27c-.6-.26-1.14-.58-1.61-.96l.31-3.65h.16c.33.89.77,1.56,1.34,2.03s1.21.73,1.95.8c.55.05,1.05-.03,1.52-.24.47-.2.84-.54,1.1-1.02.26-.47.42-1.03.47-1.66.06-.73-.03-1.36-.29-1.89-.25-.53-.68-1.17-1.29-1.94l-1.48-1.64c-.75-.91-1.32-1.84-1.71-2.79-.4-.95-.54-2-.45-3.16.09-1.11.41-2.1.96-2.98.55-.87,1.27-1.55,2.17-2.02.9-.47,1.89-.66,2.98-.57.65.06,1.22.17,1.71.33s.94.41,1.33.71l-.29,3.46h-.16c-.22-.64-.56-1.16-1.01-1.57-.45-.41-.98-.64-1.59-.69-.57-.05-1.08.03-1.54.23-.46.21-.83.53-1.1.99-.27.45-.43.98-.48,1.59-.06.73.03,1.39.28,1.96.25.57.69,1.22,1.33,1.95l1.39,1.54c.78.97,1.38,1.92,1.77,2.82.4.91.55,1.94.45,3.09-.1,1.22-.43,2.28-.98,3.18-.55.9-1.29,1.58-2.2,2.03-.92.45-1.92.63-3.01.54-.75-.06-1.43-.23-2.04-.49Z"/><path d="M217.72,95.59c-.78-1.06-1.27-2.48-1.47-4.24-.2-1.77-.07-3.79.39-6.06.47-2.29,1.12-4.21,1.98-5.76.85-1.56,1.86-2.67,3.01-3.33,1.16-.67,2.37-.87,3.65-.61,1.3.26,2.35.93,3.14,1.99.79,1.06,1.28,2.48,1.47,4.24.19,1.77.05,3.79-.41,6.08-.46,2.27-1.12,4.18-1.99,5.73-.86,1.55-1.87,2.66-3.03,3.33-1.16.67-2.37.87-3.65.61-1.28-.26-2.31-.92-3.09-1.98ZM223.21,94.65c.61-.58,1.17-1.5,1.69-2.75.51-1.25.96-2.82,1.35-4.72.38-1.88.58-3.48.61-4.82s-.14-2.39-.48-3.17c-.35-.78-.87-1.24-1.57-1.38-.7-.14-1.35.08-1.94.68-.59.6-1.15,1.52-1.67,2.77-.52,1.25-.97,2.8-1.35,4.65-.39,1.9-.58,3.51-.6,4.85s.14,2.4.47,3.17c.33.78.84,1.23,1.54,1.38.7.14,1.36-.08,1.97-.66Z"/><path d="M231.55,98.91c-.63-1.16-.93-2.62-.89-4.4.04-1.78.44-3.76,1.2-5.95.77-2.21,1.68-4.02,2.73-5.45,1.05-1.43,2.2-2.39,3.43-2.9,1.24-.51,2.47-.54,3.7-.12,1.25.44,2.2,1.23,2.85,2.39.64,1.16.94,2.63.89,4.4-.05,1.78-.46,3.77-1.23,5.97-.76,2.19-1.67,3.99-2.74,5.41-1.06,1.42-2.21,2.39-3.45,2.89-1.24.51-2.47.54-3.7.12s-2.17-1.22-2.8-2.38ZM237.12,98.71c.68-.5,1.36-1.33,2.04-2.5.67-1.17,1.33-2.67,1.97-4.5.63-1.81,1.04-3.37,1.25-4.69.2-1.32.19-2.39-.05-3.21s-.7-1.35-1.37-1.58c-.68-.23-1.35-.1-2.02.42-.67.51-1.35,1.35-2.03,2.52-.68,1.17-1.34,2.64-1.96,4.43-.64,1.83-1.05,3.41-1.25,4.73-.19,1.33-.18,2.39.04,3.2.22.81.67,1.33,1.34,1.57.68.24,1.36.11,2.04-.39Z"/><path d="M251.72,85.64l.15-1.34.03-.06,3.88,1.98-2.72,16.82.11.06,5.21-10.24c.31-.6.56-1.14.78-1.62.21-.48.38-.95.5-1.41.12-.46.21-.91.25-1.36l.06-.11,3.12,1.59-.06.11c-.32.31-.63.65-.92,1.02-.29.37-.57.78-.83,1.24-.26.46-.54.99-.84,1.59l-7.81,15.32-3.04-1.55,2.89-18.19-.08-.04-5.8,11.39c-.3.58-.55,1.12-.77,1.61s-.39.97-.53,1.43c-.14.46-.25.89-.34,1.3l-.06.11-3.07-1.56.06-.11c.31-.29.61-.63.9-1.01.29-.38.58-.8.86-1.26.28-.46.57-.98.87-1.56l7.21-14.14Z"/><path d="M267.79,110.4c-.25-.64-.32-1.31-.23-2.01.1-.7.37-1.34.83-1.92.47-.6,1.03-1.03,1.68-1.29.65-.26,1.32-.35,2-.25.69.1,1.33.38,1.92.85.56.44.98.99,1.24,1.64.27.65.34,1.32.24,2-.11.68-.4,1.33-.88,1.94-.47.59-1.02,1.02-1.67,1.28s-1.31.33-2,.24c-.68-.1-1.31-.37-1.87-.81-.6-.47-1.02-1.02-1.27-1.66Z"/></svg>