<?xml version="1.0" encoding="UTF-8"?>
<svg id="Layer_2" data-name="Layer 2" xmlns="http://www.w3.org/2000/svg" viewBox="0 0 260.47 230.78">
  <defs>
    <style>
      .cls-1 {
        fill: #fffcfa;
      }
    </style>
  </defs>
  <g id="Layer_1-2" data-name="Layer 1">
    <g>
      <g>
        <path class="cls-1" d="M32.59,146.81c-1.56-.59-2.98-1.37-4.28-2.33-.28-2.79-.42-4.19-.7-6.98.11,0,.17.01.28.02,1.19,1.79,2.57,3.18,4.12,4.13,1.56.95,3.12,1.47,4.69,1.54,1.05.05,1.99-.1,2.84-.43.84-.33,1.47-.89,1.87-1.67s.55-1.69.45-2.73c-.12-1.18-.52-2.18-1.22-3-.7-.82-1.73-1.72-3.09-2.72-1.59-.97-2.39-1.46-3.99-2.45-2.04-1.41-3.67-2.97-4.86-4.64-1.2-1.67-1.9-3.55-2.11-5.61-.2-2.03.12-3.84.97-5.46.85-1.61,2.13-2.86,3.85-3.76,1.72-.9,3.71-1.34,5.98-1.33,1.45,0,2.82.15,4.11.44,1.29.29,2.44.72,3.47,1.3.28,2.72.41,4.09.69,6.81-.13,0-.2,0-.33,0-.83-1.24-1.87-2.22-3.13-2.94-1.26-.72-2.6-1.08-4.01-1.09-1.04,0-1.99.18-2.84.56-.85.38-1.48.93-1.87,1.67-.39.74-.54,1.62-.43,2.66.11,1.15.53,2.16,1.26,3.04s1.81,1.84,3.25,2.87c1.54.91,2.31,1.36,3.85,2.25,2.03,1.37,3.64,2.82,4.84,4.37,1.19,1.55,1.9,3.36,2.11,5.45.23,2.23-.09,4.2-.94,5.88-.85,1.68-2.16,3-3.92,3.92-1.77.92-3.77,1.34-6.02,1.24-1.69-.08-3.31-.41-4.87-1Z"/>
        <path class="cls-1" d="M59.31,145.3c-2.45-1.42-4.47-3.59-6.06-6.48-1.59-2.89-2.58-6.3-2.98-10.23-.4-3.93-.11-7.4.86-10.42.97-3.02,2.52-5.39,4.67-7.12,2.14-1.73,4.65-2.75,7.51-3.05,2.9-.31,5.55.15,7.95,1.42,2.4,1.27,4.38,3.29,5.94,6.07,1.57,2.79,2.55,6.19,2.97,10.21.41,4.02.14,7.6-.82,10.73-.96,3.13-2.48,5.63-4.56,7.47-2.08,1.84-4.58,2.9-7.49,3.16-2.88.26-5.54-.33-7.99-1.75ZM70.89,140.14c1.04-1.29,1.73-3.08,2.06-5.37.33-2.29.34-5,.02-8.13-.32-3.17-.88-5.81-1.66-7.93-.78-2.11-1.82-3.7-3.09-4.76-1.28-1.06-2.76-1.5-4.43-1.32-1.71.18-3.06.92-4.07,2.24-1.01,1.32-1.71,3.1-2.1,5.35-.4,2.25-.44,4.9-.13,7.94.32,3.15.89,5.81,1.72,7.97.83,2.17,1.88,3.78,3.14,4.83s2.76,1.51,4.47,1.35c1.67-.16,3.03-.88,4.07-2.17Z"/>
        <path class="cls-1" d="M83.45,110.96c-.19-.94-.4-1.79-.64-2.55-.24-.76-.56-1.46-.95-2.1-.01-.11-.02-.16-.03-.27,3.61-.6,5.41-.93,9.01-1.61.01.11.02.17.03.28-.25.76-.42,1.55-.52,2.37-.1.82-.14,1.71-.14,2.66,0,.95.07,2.03.2,3.24,1.04,10.11,1.56,15.17,2.6,25.28,2.32-.41,3.47-.63,5.78-1.07,1.21-.23,2.24-.54,3.07-.91.83-.37,1.53-.86,2.08-1.46.56-.6,1.02-1.39,1.39-2.36.13-.03.19-.04.32-.07.33,3.2.5,4.79.82,7.99-8.26,1.69-12.4,2.48-20.74,3.77-.01-.11-.02-.16-.03-.27.25-.74.42-1.53.5-2.36.08-.83.12-1.72.11-2.66,0-.95-.07-2.04-.2-3.29-.88-8.58-1.32-12.87-2.21-21.45-.12-1.17-.27-2.22-.46-3.16Z"/>
        <path class="cls-1" d="M106.59,106.45c-.18-.9-.4-1.74-.64-2.51-.24-.77-.56-1.48-.95-2.11-.01-.11-.02-.17-.03-.28,4.3-.92,6.45-1.4,10.74-2.37,3.36-.76,6.37-.65,9.03.34,2.66.99,4.79,2.79,6.4,5.38,1.61,2.59,2.62,5.84,3.02,9.74.4,3.83.09,7.34-.92,10.53-1.01,3.19-2.67,5.86-4.98,8.01-2.31,2.15-5.17,3.61-8.57,4.37-4.29.96-6.44,1.43-10.75,2.32-.01-.11-.02-.17-.03-.28.25-.76.42-1.56.52-2.39.1-.83.13-1.72.11-2.67-.03-.95-.1-2.03-.23-3.25-.89-8.64-1.34-12.97-2.24-21.61-.13-1.25-.29-2.32-.47-3.22ZM123.7,130.46c1.4-1.32,2.42-3.17,3.06-5.56.64-2.39.78-5.28.43-8.66-.36-3.46-1.08-6.17-2.17-8.12-1.09-1.96-2.44-3.27-4.05-3.94-1.61-.67-3.48-.76-5.6-.28-.91.21-1.37.31-2.28.51,1.01,9.75,2.02,19.5,3.03,29.24.91-.2,1.37-.3,2.29-.51,2.12-.47,3.89-1.37,5.29-2.69Z"/>
        <path class="cls-1" d="M154.41,127.9c-2.38-1.1-4.35-3.01-5.9-5.74-1.55-2.72-2.53-6.09-2.95-10.1-.41-4.01-.17-7.66.74-10.94.91-3.28,2.4-5.96,4.48-8.01,2.07-2.05,4.52-3.36,7.33-3.91,2.85-.56,5.46-.24,7.84.93,2.38,1.18,4.35,3.16,5.91,5.93,1.56,2.77,2.55,6.17,2.96,10.19.41,4.02.15,7.62-.8,10.8-.95,3.19-2.45,5.77-4.5,7.76-2.05,1.99-4.5,3.28-7.34,3.86-2.81.57-5.4.32-7.78-.78ZM165.68,121.29c1.02-1.4,1.69-3.26,2.01-5.6.32-2.34.32-5.09,0-8.24-.33-3.19-.88-5.83-1.66-7.93-.78-2.1-1.8-3.64-3.07-4.64-1.27-.99-2.72-1.33-4.36-1.01-1.67.33-3,1.23-3.97,2.68-.98,1.46-1.65,3.37-2.02,5.74-.37,2.37-.4,5.1-.08,8.18.33,3.2.9,5.86,1.72,7.97.82,2.12,1.85,3.64,3.08,4.56,1.24.92,2.69,1.21,4.36.87,1.64-.33,2.96-1.2,3.98-2.59Z"/>
        <path class="cls-1" d="M186.95,122.67c-2-.81-3.61-2.18-4.83-4.12-1.22-1.95-1.99-4.47-2.31-7.58-.66-6.45-.99-9.67-1.65-16.11-.13-1.24-.27-2.32-.42-3.25s-.34-1.79-.57-2.59c-.23-.8-.56-1.5-.98-2.1-.01-.11-.02-.16-.03-.27,3.65-.55,5.47-.8,9.14-1.25.01.11.02.16.03.27-.29.7-.49,1.47-.59,2.31-.1.84-.14,1.73-.14,2.65,0,.92.07,2.02.2,3.3.67,6.51,1,9.77,1.67,16.29.19,1.82.59,3.31,1.2,4.47.61,1.16,1.46,1.99,2.54,2.52,1.08.53,2.36.7,3.85.53,1.45-.17,2.64-.61,3.58-1.32.93-.72,1.59-1.71,1.95-2.99.37-1.28.46-2.82.27-4.64-.66-6.53-1-9.79-1.66-16.31-.13-1.23-.28-2.32-.47-3.25-.19-.93-.4-1.78-.64-2.52-.24-.75-.56-1.45-.96-2.12-.01-.11-.02-.16-.03-.27,3.11-.25,4.67-.35,7.8-.5.01.11.02.16.03.27-.3.7-.5,1.44-.61,2.21-.11.77-.14,1.64-.1,2.59.04.96.12,2.04.25,3.23.65,6.35.97,9.53,1.61,15.89.31,3.07.09,5.7-.66,7.89s-2.01,3.9-3.78,5.14c-1.77,1.24-3.99,2.02-6.67,2.34-2.68.32-5.02.09-7.02-.72Z"/>
        <path class="cls-1" d="M216.1,88.05c-.94,0-1.4,0-2.34,0-1.15,0-2.17.12-3.05.34-.89.22-1.62.54-2.21.98-.58.43-1.1.99-1.55,1.66-.11,0-.17,0-.28.01-.3-2.92-.44-4.38-.74-7.31,10.34-.39,15.57-.32,26.21.68.29,2.88.43,4.32.72,7.2-.11-.01-.17-.02-.29-.03-.52-.68-1.12-1.25-1.8-1.71-.68-.46-1.49-.82-2.41-1.08-.92-.26-1.99-.42-3.19-.48-.92-.05-1.38-.07-2.31-.1.99,9.87,1.49,14.81,2.48,24.69.12,1.18.28,2.24.49,3.17.21.93.44,1.8.71,2.59.27.79.62,1.52,1.06,2.17.01.11.02.16.03.27-3.9-.11-5.84-.11-9.7-.03-.01-.11-.02-.16-.03-.27.34-.66.57-1.38.67-2.17.11-.79.17-1.66.18-2.59.02-.94-.03-2-.15-3.18-1-9.92-1.5-14.88-2.5-24.79Z"/>
      </g>
      <g>
        <path class="cls-1" d="M26.1,83.94c-1.54-.53-2.96-1.27-4.25-2.19-.28-2.81-.42-4.21-.7-7.01.11,0,.17,0,.28.01,1.19,1.76,2.55,3.1,4.1,4.01,1.54.9,3.1,1.37,4.66,1.38,1.04,0,1.98-.17,2.82-.53.83-.36,1.45-.95,1.85-1.75.4-.8.55-1.72.44-2.77-.12-1.19-.53-2.18-1.22-2.98-.69-.8-1.72-1.67-3.08-2.64-1.58-.92-2.38-1.38-3.97-2.32-2.03-1.35-3.64-2.86-4.83-4.5-1.19-1.64-1.89-3.5-2.1-5.58-.2-2.04.11-3.88.95-5.54.84-1.66,2.11-2.96,3.82-3.93,1.7-.97,3.68-1.48,5.93-1.54,1.44-.04,2.8.06,4.08.31,1.28.25,2.43.65,3.44,1.2.28,2.73.42,4.1.69,6.83-.13,0-.2.01-.33.02-.82-1.23-1.86-2.18-3.11-2.87-1.25-.69-2.58-1.01-3.98-.97-1.03.03-1.97.25-2.82.65-.85.41-1.47.99-1.86,1.74-.39.76-.53,1.65-.43,2.7.12,1.15.53,2.16,1.25,3.02.72.86,1.8,1.79,3.23,2.78,1.53.86,2.3,1.29,3.83,2.13,2.02,1.31,3.62,2.72,4.81,4.24,1.19,1.52,1.89,3.33,2.1,5.42.23,2.24-.08,4.23-.92,5.95-.84,1.72-2.14,3.09-3.89,4.08-1.75.99-3.74,1.48-5.98,1.46-1.68-.02-3.29-.29-4.83-.83Z"/>
        <path class="cls-1" d="M52.64,81.54c-2.44-1.36-4.45-3.48-6.03-6.34-1.58-2.86-2.57-6.27-2.97-10.21-.4-3.94-.12-7.44.84-10.51.96-3.07,2.5-5.49,4.63-7.29,2.13-1.8,4.62-2.88,7.47-3.26,2.89-.38,5.52.03,7.91,1.25,2.39,1.22,4.36,3.21,5.92,5.98,1.56,2.77,2.55,6.17,2.96,10.19.41,4.03.15,7.63-.81,10.79-.95,3.16-2.46,5.71-4.53,7.59-2.07,1.89-4.55,3.02-7.45,3.35-2.86.33-5.51-.19-7.95-1.55ZM64.15,76.06c1.03-1.32,1.72-3.14,2.05-5.44.33-2.31.33-5.03.01-8.17-.33-3.18-.88-5.82-1.66-7.93-.78-2.11-1.81-3.68-3.09-4.72-1.28-1.04-2.74-1.44-4.4-1.23-1.7.22-3.05,1-4.05,2.35-1,1.35-1.69,3.16-2.08,5.44-.39,2.28-.43,4.94-.12,7.99.32,3.16.9,5.82,1.72,7.97.83,2.16,1.87,3.75,3.13,4.78,1.26,1.03,2.74,1.45,4.45,1.24,1.66-.2,3.01-.96,4.05-2.28Z"/>
        <path class="cls-1" d="M76.62,46.51c-.19-.94-.4-1.78-.64-2.54-.24-.76-.56-1.45-.95-2.09-.01-.11-.02-.16-.03-.27,3.6-.66,5.39-1.02,8.98-1.74.01.11.02.17.03.28-.25.76-.42,1.56-.52,2.38-.1.82-.14,1.71-.13,2.67,0,.95.07,2.04.2,3.25,1.05,10.13,1.57,15.19,2.61,25.32,2.31-.45,3.46-.68,5.77-1.15,1.21-.25,2.23-.56,3.06-.94.83-.38,1.52-.88,2.08-1.48s1.02-1.4,1.39-2.38c.13-.03.19-.04.32-.07.33,3.2.5,4.8.83,8-8.24,1.77-12.37,2.62-20.68,4.07-.01-.11-.02-.16-.03-.27.25-.75.41-1.55.49-2.38.08-.83.11-1.73.11-2.68,0-.95-.07-2.05-.2-3.29-.89-8.59-1.33-12.89-2.21-21.49-.12-1.17-.27-2.23-.46-3.16Z"/>
        <path class="cls-1" d="M99.7,41.73c-.18-.9-.4-1.74-.64-2.51-.24-.77-.56-1.47-.95-2.1-.01-.11-.02-.17-.03-.28,4.29-.96,6.44-1.45,10.73-2.43,3.36-.77,6.37-.66,9.03.33,2.66.99,4.79,2.79,6.4,5.38,1.61,2.59,2.62,5.84,3.02,9.74.4,3.83.09,7.33-.92,10.52-1.01,3.19-2.67,5.86-4.98,8.01-2.31,2.15-5.17,3.62-8.56,4.39-4.29.98-6.44,1.46-10.73,2.4-.01-.11-.02-.17-.03-.28.25-.77.42-1.57.51-2.4.09-.83.13-1.72.1-2.67-.03-.95-.1-2.04-.23-3.25-.9-8.65-1.34-12.98-2.24-21.63-.13-1.25-.29-2.33-.47-3.23ZM116.8,65.68c1.4-1.32,2.42-3.17,3.06-5.56.64-2.39.79-5.28.43-8.66-.36-3.46-1.08-6.17-2.17-8.12-1.09-1.96-2.44-3.27-4.05-3.93-1.61-.67-3.48-.76-5.6-.27-.91.21-1.37.31-2.28.52,1.01,9.75,2.02,19.51,3.03,29.26.91-.21,1.37-.31,2.28-.52,2.12-.48,3.89-1.39,5.29-2.71Z"/>
        <path class="cls-1" d="M147.54,63.23c-2.38-1.12-4.35-3.04-5.91-5.77-1.55-2.73-2.53-6.1-2.95-10.11-.41-4-.17-7.65.75-10.92.91-3.27,2.41-5.92,4.49-7.95,2.08-2.02,4.53-3.3,7.35-3.81,2.86-.52,5.48-.16,7.87,1.05,2.38,1.21,4.36,3.22,5.93,6.01,1.57,2.79,2.55,6.19,2.97,10.21.41,4.02.14,7.59-.82,10.75-.95,3.16-2.46,5.7-4.52,7.66-2.06,1.96-4.51,3.2-7.37,3.75-2.82.54-5.42.26-7.8-.87ZM158.84,56.78c1.02-1.38,1.7-3.23,2.02-5.56.33-2.33.33-5.06,0-8.21-.33-3.18-.88-5.82-1.66-7.93-.78-2.1-1.81-3.66-3.08-4.67-1.27-1.01-2.73-1.37-4.37-1.07-1.68.31-3.01,1.19-3.98,2.63-.98,1.44-1.65,3.34-2.03,5.7-.37,2.36-.4,5.08-.08,8.17.33,3.19.9,5.85,1.72,7.97.82,2.12,1.85,3.65,3.09,4.58,1.24.93,2.7,1.24,4.37.92,1.64-.31,2.97-1.15,4-2.53Z"/>
        <path class="cls-1" d="M180.19,58.53c-2.01-.85-3.63-2.24-4.85-4.2-1.23-1.96-2-4.49-2.31-7.59-.66-6.43-.99-9.64-1.65-16.07-.13-1.24-.26-2.32-.41-3.24-.15-.92-.34-1.78-.57-2.58-.23-.8-.56-1.51-.99-2.12-.01-.11-.02-.16-.03-.27,3.66-.47,5.5-.68,9.19-1.03.01.11.02.16.03.27-.3.69-.5,1.45-.59,2.29-.1.84-.15,1.71-.14,2.63,0,.92.07,2.01.2,3.28.66,6.5.99,9.75,1.66,16.25.19,1.82.59,3.31,1.2,4.47.61,1.16,1.46,2.02,2.55,2.57,1.08.55,2.37.75,3.87.62,1.46-.13,2.66-.53,3.6-1.22.94-.69,1.6-1.66,1.97-2.92.37-1.26.46-2.79.28-4.6-.66-6.51-.99-9.76-1.65-16.26-.12-1.23-.28-2.31-.47-3.24-.19-.93-.4-1.78-.64-2.53-.24-.75-.56-1.46-.96-2.13-.01-.11-.02-.16-.03-.27,3.13-.16,4.7-.21,7.85-.26.01.11.02.16.03.27-.3.69-.5,1.42-.61,2.17-.11.76-.14,1.62-.1,2.57.04.96.12,2.03.24,3.22.64,6.33.96,9.5,1.6,15.84.31,3.06.08,5.67-.68,7.82-.76,2.15-2.03,3.81-3.81,5-1.78,1.19-4.02,1.9-6.71,2.15-2.69.25-5.04-.03-7.05-.88Z"/>
        <path class="cls-1" d="M209.57,24.98c-.94-.04-1.42-.06-2.36-.08-1.16-.03-2.18.04-3.08.23-.89.19-1.63.49-2.22.9-.59.41-1.11.94-1.56,1.6-.11,0-.17,0-.28,0-.29-2.91-.44-4.37-.73-7.28,10.41-.05,15.68.21,26.42,1.65.28,2.86.42,4.3.71,7.16-.11-.01-.17-.02-.29-.04-.52-.69-1.13-1.29-1.81-1.77-.69-.48-1.5-.88-2.43-1.17-.93-.29-2-.5-3.22-.6-.93-.08-1.4-.12-2.33-.19.98,9.82,1.47,14.74,2.45,24.58.12,1.18.28,2.23.48,3.17.21.94.44,1.8.71,2.59.27.8.62,1.53,1.06,2.19.01.11.02.16.03.27-3.93-.25-5.88-.32-9.77-.38-.01-.11-.02-.16-.03-.27.34-.64.57-1.35.68-2.14.11-.78.17-1.64.19-2.57.02-.93-.03-1.98-.15-3.16-.99-9.88-1.49-14.82-2.48-24.68Z"/>
      </g>
      <g>
        <path class="cls-1" d="M38.62,209.35c-1.57-.65-3.01-1.48-4.32-2.5-.27-2.78-.41-4.17-.69-6.95.11.01.17.02.29.04,1.2,1.83,2.58,3.26,4.15,4.27,1.57,1.01,3.15,1.59,4.73,1.72,1.06.09,2.01-.02,2.86-.31.85-.3,1.48-.83,1.89-1.58.41-.76.56-1.66.46-2.69-.12-1.18-.53-2.18-1.23-3.02-.7-.84-1.74-1.77-3.12-2.82-1.61-1.02-2.41-1.54-4.02-2.59-2.06-1.48-3.69-3.09-4.9-4.8-1.21-1.71-1.91-3.59-2.11-5.65-.2-2.02.13-3.8.99-5.37.86-1.57,2.16-2.75,3.89-3.57,1.73-.82,3.75-1.18,6.03-1.08,1.46.06,2.84.25,4.14.59,1.3.33,2.46.8,3.49,1.42.27,2.71.41,4.07.68,6.78-.13,0-.2,0-.34,0-.83-1.26-1.88-2.27-3.15-3.03-1.27-.76-2.61-1.17-4.04-1.23-1.05-.05-2.01.1-2.87.44-.86.34-1.49.86-1.89,1.58-.4.71-.55,1.59-.44,2.62.11,1.14.54,2.16,1.26,3.06.73.9,1.82,1.9,3.27,2.98,1.55.96,2.33,1.44,3.88,2.38,2.05,1.44,3.67,2.93,4.87,4.51,1.2,1.58,1.91,3.41,2.12,5.49.22,2.22-.09,4.16-.95,5.8-.86,1.64-2.18,2.9-3.96,3.74-1.78.85-3.81,1.18-6.08.99-1.7-.15-3.34-.55-4.91-1.2Z"/>
        <path class="cls-1" d="M65.56,208.86c-2.46-1.49-4.5-3.71-6.09-6.63-1.59-2.92-2.59-6.35-2.98-10.26-.39-3.91-.1-7.35.88-10.32.98-2.97,2.55-5.27,4.71-6.92,2.16-1.66,4.68-2.59,7.57-2.82,2.92-.23,5.58.3,7.99,1.62,2.41,1.32,4.39,3.37,5.96,6.18,1.57,2.81,2.56,6.22,2.97,10.22.41,4.01.13,7.57-.83,10.66s-2.5,5.54-4.59,7.31c-2.1,1.77-4.61,2.76-7.54,2.94-2.9.18-5.58-.5-8.04-1.98ZM77.23,204.08c1.05-1.25,1.74-3.02,2.08-5.29s.35-4.96.03-8.09c-.32-3.16-.88-5.8-1.66-7.92-.78-2.12-1.82-3.72-3.11-4.81-1.29-1.09-2.77-1.56-4.45-1.43-1.72.13-3.08.83-4.1,2.11-1.01,1.28-1.72,3.03-2.12,5.25-.4,2.23-.45,4.86-.14,7.89.32,3.14.89,5.8,1.72,7.97.83,2.18,1.88,3.81,3.16,4.9,1.27,1.09,2.77,1.58,4.5,1.47,1.68-.11,3.05-.79,4.1-2.05Z"/>
        <path class="cls-1" d="M89.87,175.33c-.19-.93-.4-1.78-.65-2.55-.24-.76-.56-1.46-.96-2.11-.01-.11-.02-.17-.03-.27,3.63-.53,5.44-.82,9.05-1.44.01.11.02.16.03.27-.25.75-.42,1.53-.52,2.35-.1.82-.14,1.7-.14,2.65,0,.95.07,2.02.2,3.23,1.04,10.09,1.56,15.14,2.59,25.23,2.33-.37,3.49-.56,5.81-.97,1.22-.21,2.24-.5,3.08-.86.84-.36,1.53-.83,2.09-1.42.56-.59,1.02-1.37,1.4-2.34.13-.02.19-.04.32-.06.33,3.19.49,4.79.82,7.98-8.28,1.58-12.44,2.29-20.82,3.4-.01-.11-.02-.16-.03-.27.25-.74.42-1.52.5-2.34.08-.82.12-1.71.11-2.65,0-.94-.07-2.03-.2-3.27-.88-8.56-1.32-12.84-2.2-21.4-.12-1.17-.27-2.22-.46-3.16Z"/>
        <path class="cls-1" d="M113.09,171.19c-.18-.9-.4-1.74-.64-2.51-.24-.78-.56-1.48-.95-2.11-.01-.11-.02-.17-.03-.28,4.31-.88,6.46-1.34,10.76-2.28,3.37-.74,6.38-.62,9.04.38,2.66,1,4.79,2.79,6.4,5.38,1.61,2.59,2.62,5.84,3.02,9.74.4,3.83.09,7.34-.92,10.53-1.01,3.19-2.67,5.86-4.99,7.99-2.32,2.14-5.17,3.58-8.58,4.31-4.3.92-6.45,1.37-10.77,2.21-.01-.11-.02-.16-.03-.27.25-.76.42-1.55.52-2.38.1-.82.13-1.71.11-2.66-.03-.95-.1-2.03-.23-3.24-.89-8.63-1.34-12.95-2.23-21.59-.13-1.25-.28-2.32-.47-3.22ZM130.22,195.28c1.41-1.31,2.43-3.15,3.07-5.54.64-2.38.79-5.27.44-8.66-.36-3.46-1.08-6.17-2.17-8.12-1.09-1.96-2.44-3.27-4.05-3.95-1.61-.68-3.48-.78-5.61-.31-.91.2-1.37.3-2.29.5,1.01,9.74,2.01,19.48,3.02,29.22.92-.19,1.37-.29,2.29-.49,2.13-.46,3.9-1.34,5.3-2.65Z"/>
        <path class="cls-1" d="M160.93,192.7c-2.38-1.09-4.34-2.99-5.89-5.71-1.55-2.72-2.53-6.08-2.95-10.1-.42-4.01-.17-7.67.74-10.96.91-3.29,2.4-5.98,4.47-8.05,2.07-2.07,4.51-3.41,7.31-4,2.84-.6,5.45-.31,7.82.83,2.37,1.14,4.34,3.1,5.89,5.85,1.56,2.75,2.54,6.15,2.96,10.18.42,4.03.15,7.65-.79,10.86s-2.43,5.82-4.48,7.85c-2.04,2.03-4.48,3.35-7.32,3.96-2.8.6-5.39.37-7.77-.72ZM172.17,185.97c1.01-1.41,1.68-3.29,2-5.64.32-2.35.32-5.1,0-8.26-.33-3.19-.88-5.84-1.66-7.93-.78-2.09-1.8-3.63-3.06-4.61-1.26-.98-2.71-1.3-4.35-.96-1.67.35-2.99,1.26-3.96,2.73-.97,1.47-1.64,3.39-2.01,5.77-.37,2.38-.4,5.11-.08,8.2.33,3.2.91,5.86,1.72,7.97.82,2.11,1.84,3.63,3.08,4.54,1.24.91,2.69,1.19,4.36.83,1.63-.35,2.96-1.23,3.97-2.64Z"/>
        <path class="cls-1" d="M193.36,187.01c-1.99-.77-3.6-2.11-4.82-4.04-1.22-1.93-1.99-4.45-2.31-7.56-.66-6.46-1-9.69-1.66-16.14-.13-1.24-.27-2.33-.42-3.25-.15-.92-.34-1.79-.57-2.59-.23-.8-.56-1.5-.98-2.09-.01-.11-.02-.17-.03-.27,3.63-.62,5.45-.92,9.1-1.44.01.11.02.16.03.27-.29.71-.49,1.49-.58,2.34-.1.85-.14,1.74-.14,2.66,0,.93.07,2.03.2,3.31.67,6.53,1.01,9.8,1.68,16.33.19,1.83.59,3.32,1.2,4.46.61,1.15,1.45,1.97,2.53,2.48,1.07.5,2.35.65,3.83.44,1.44-.2,2.63-.67,3.56-1.42.93-.75,1.58-1.76,1.94-3.06.36-1.3.45-2.85.27-4.67-.67-6.55-1-9.82-1.67-16.36-.13-1.24-.28-2.32-.47-3.26-.19-.93-.4-1.78-.64-2.52-.24-.74-.56-1.44-.96-2.1-.01-.11-.02-.16-.03-.27,3.09-.33,4.64-.48,7.75-.72.01.11.02.16.03.27-.29.72-.5,1.46-.6,2.24-.11.78-.14,1.65-.09,2.61.04.96.13,2.05.25,3.24.65,6.38.98,9.57,1.63,15.95.31,3.09.1,5.73-.65,7.96-.75,2.22-2,3.98-3.75,5.27-1.75,1.3-3.97,2.13-6.63,2.51-2.66.38-4.99.2-6.98-.57Z"/>
        <path class="cls-1" d="M222.3,151.38c-.93.03-1.39.04-2.32.08-1.14.05-2.15.2-3.03.44-.88.25-1.61.6-2.19,1.06-.58.46-1.09,1.03-1.54,1.72-.11,0-.17.01-.28.02-.3-2.93-.45-4.4-.74-7.33,10.27-.72,15.46-.83,26-.27.29,2.89.43,4.34.72,7.23-.11,0-.17,0-.28-.01-.51-.66-1.11-1.22-1.79-1.65-.68-.44-1.48-.77-2.39-.99s-1.97-.34-3.16-.36c-.92-.01-1.37-.02-2.29-.02,1,9.91,1.5,14.87,2.5,24.8.12,1.19.28,2.25.49,3.18.21.94.44,1.8.71,2.58.26.79.61,1.5,1.05,2.15.01.11.02.16.03.27-3.87.04-5.79.1-9.62.3-.01-.11-.02-.16-.03-.27.34-.67.56-1.41.66-2.21.1-.8.16-1.68.18-2.62.02-.94-.04-2.01-.16-3.2-1.01-9.96-1.51-14.94-2.52-24.88Z"/>
      </g>
    </g>
  </g>
</svg>