<svg viewBox="0 0.89 129 31.22" xmlns="http://www.w3.org/2000/svg" class="nav-header-logo"><path d="M121.053 26.172c-1.067.99-2.318 1.485-3.753 1.485-1.88 0-3.262-.638-4.149-1.914-.887-1.276-1.33-3.072-1.33-5.386v-5.832h-2.597l-.095-.215a12.307 12.307 0 013.563-4.991c1.615-1.372 3.478-2.285 5.59-2.738l.19.143v5.44l4.434-2.47.19.143-.792 4.688-3.832-.215v4.724c0 1.24.206 2.164.617 2.773.412.608 1.04.912 1.885.912.359 0 .707-.077 1.045-.232.337-.155.634-.316.887-.484l.222.144c-.317 1.694-1.009 3.036-2.075 4.025zm-14.046-.178c-1.373 1.109-3.22 1.663-5.543 1.663-1.309 0-2.576-.178-3.8-.537-1.225-.357-2.302-.87-3.23-1.538l2.153-3.936h.158c.634 1.288 1.394 2.338 2.28 3.149.887.81 1.72 1.216 2.503 1.216.422 0 .754-.112.997-.34.243-.226.365-.53.365-.912 0-.573-.201-1.062-.602-1.467-.402-.406-1.193-.942-2.376-1.61l-.823-.465c-1.077-.62-1.922-1.2-2.534-1.736-.612-.537-1.05-1.103-1.314-1.7-.264-.596-.396-1.288-.396-2.075 0-1.169.306-2.183.918-3.042.613-.858 1.494-1.532 2.645-2.021 1.15-.49 2.539-.734 4.165-.734 1.246 0 2.444.143 3.594.43 1.151.286 2.17.703 3.057 1.252l-2.724 3.113h-.19c-.507-1.05-1.076-1.837-1.71-2.362-.633-.524-1.32-.787-2.059-.787-.443 0-.807.113-1.093.34a1.071 1.071 0 00-.427.877c0 .31.09.596.27.858.178.263.5.55.965.86.464.31 1.12.703 1.964 1.18l1.108.608c1.31.74 2.26 1.516 2.85 2.326.591.812.888 1.777.888 2.899 0 1.884-.687 3.381-2.06 4.49zm-15.043-16.3l.19.108v13.525l.95 3.758v.215h-8.551v-.215l.95-3.758v-8.23l-.95-3.399v-.214l7.41-1.79zM88.7 2.251c1.056 0 1.932.293 2.629.877.696.585 1.045 1.366 1.045 2.344 0 1.002-.349 1.79-1.045 2.362-.697.572-1.573.858-2.629.858-1.013 0-1.874-.286-2.58-.858-.709-.573-1.062-1.36-1.062-2.362 0-.978.353-1.759 1.061-2.344.707-.584 1.568-.877 2.581-.877zM82.526 27.3h-8.552v-.215l.95-3.758V7.654l-.95-3.399v-.214l7.412-1.79.19.108v20.968l.95 3.758v.215zm-10.578 0h-8.552v-.215l.95-3.758V7.654l-.95-3.399v-.214l7.412-1.79.19.108v20.968l.95 3.758v.215zM60.23 9.694l.19.108v13.525l.95 3.758v.215h-8.551v-.215l.95-3.758v-8.23l-.95-3.399v-.214l7.41-1.79zm-3.263-7.443c1.056 0 1.932.293 2.629.877.697.585 1.045 1.366 1.045 2.344 0 1.002-.348 1.79-1.045 2.362-.697.572-1.573.858-2.629.858-1.013 0-1.874-.286-2.58-.858-.709-.573-1.062-1.36-1.062-2.362 0-.978.353-1.759 1.061-2.344.707-.584 1.568-.877 2.581-.877zm-6.27 13.92h-.19a3.165 3.165 0 00-.887-.662 2.35 2.35 0 00-1.045-.233c-.402 0-.819.078-1.251.233-.359.129-.69.305-.998.523v7.295l1.425 3.758v.215h-9.026v-.215l.95-3.758v-8.23l-.95-3.399v-.214l7.41-1.79.19.108v4.567c.48-1.384 1.075-2.459 1.79-3.226.813-.87 1.737-1.306 2.772-1.306.232 0 .475.042.728.126.253.084.454.185.602.304l-1.52 5.904zM36.76 27.3h-8.55v-.215l.95-3.758v-4.651c0-1.36-.201-2.326-.602-2.898-.402-.573-.93-.86-1.584-.86-.401 0-.776.09-1.124.269a2.431 2.431 0 00-.681.509v7.631l.95 3.758v.215h-8.552v-.215l.95-3.758V7.654l-.95-3.399v-.214l7.412-1.79.19.108v11.856a7.09 7.09 0 01.65-1.55 6.157 6.157 0 012.026-2.166c.834-.536 1.768-.805 2.803-.805 1.161 0 2.122.346 2.882 1.038.76.692 1.33 1.64 1.71 2.845.38 1.205.57 2.559.57 4.061v5.69l.95 3.757v.215zm-22.914-1.128c-1.066.99-2.317 1.485-3.753 1.485-1.88 0-3.262-.638-4.149-1.914-.887-1.276-1.33-3.072-1.33-5.386v-5.832H2.018l-.095-.215A12.305 12.305 0 015.486 9.32C7.1 7.947 8.965 7.034 11.076 6.58l.19.143v5.44l4.434-2.47.19.143-.792 4.688-3.832-.215v4.724c0 1.24.206 2.164.618 2.773.412.608 1.039.912 1.884.912.358 0 .707-.077 1.045-.232.338-.155.634-.316.887-.484l.222.144c-.317 1.694-1.009 3.036-2.075 4.025zm111.246-5.23l-.939-.607v-.58l3.542.198 1.238-7.325-3.907-3.917-1.974-1.491-4.351-2.907-.792.17a14.451 14.451 0 00-8.2 4.986 12.702 12.702 0 00-3.115-1.215 16.664 16.664 0 00-4.022-.482c-1.717 0-3.24.255-4.54.751-.107-1.16-.584-2.167-1.395-2.954-.056-.06-4.01-4.03-4.17-4.163C91.447.549 90.18.114 88.702.114c-1.43 0-2.68.432-3.71 1.284a4.797 4.797 0 00-.61.611L83.35.961 81.648 0l-7.987 1.928-.888-.967L71.07 0l-9.44 2.28a31.06 31.06 0 00-.895-.874C59.713.549 58.445.114 56.967.114c-1.43 0-2.679.432-3.71 1.283-1.117.924-1.708 2.21-1.708 3.719 0 1.117.318 2.104.92 2.91a4.108 4.108 0 00-1.583-.326 5.22 5.22 0 00-2.765.794l-.02-.089-1.701-.962-9.45 2.282v1.557a383.504 383.504 0 00-2.226-2.225c-1.047-.953-2.35-1.45-3.872-1.492V4.878L26.945.961 25.243 0l-9.45 2.281v1.863l.95 3.4v.353l-3.701-2.42-1.548-1.163-.79.17a14.395 14.395 0 00-6.365 3.12 14.123 14.123 0 00-4.07 5.704L0 13.999l.864 1.95 1.953 1.96h.022V20c0 2.675.555 4.83 1.65 6.404.213.307.478.63.804.94.058.059 3.667 3.68 3.73 3.739C9.982 32.076 11.535 33 14 33c1.708 0 3.232-.543 4.542-1.605l1.157 1.247h79.086V31.48c.712.363 1.472.673 2.287.911a15.29 15.29 0 004.298.609c2.727 0 4.966-.693 6.657-2.059a7.216 7.216 0 001.848-2.215c.015.014 2.29 2.3 2.352 2.358.96.992 2.514 1.916 4.979 1.916 1.89 0 3.559-.66 4.96-1.96 1.346-1.25 2.226-2.934 2.612-5.003L129 24.86l-3.907-3.918z" fill="currentColor" fill-rule="evenodd"></path></svg>
