<?xml version="1.0" encoding="UTF-8"?>
<svg id="Layer_2" data-name="Layer 2" xmlns="http://www.w3.org/2000/svg" viewBox="0 0 201.14 203.72">
  <g id="Layer_2-2" data-name="Layer 2">
    <path fill="#0E4A0E" d="M196.53,60.38L128.76,4.53l-.37-.3c-.13-.12-.28-.22-.42-.32-.09-.06-.17-.13-.25-.19-.22-.16-.45-.3-.67-.45C124.5,1.61,120.74-.07,118.19,0h-.03l-31.1,1.02c-4.2.13-8.02,2.4-10.15,6.02L1.75,133.08c-3.12,5.24-1.98,12.01,2.72,15.9l62.49,51.91c2.32,1.95,5.3,2.96,8.34,2.82l41.29-1.32s-.12-.03-.17-.03c4.33.03,8.6-2.09,11.03-6.13l71.87-119.52c3.24-5.39,2.07-12.32-2.78-16.32h-.01ZM197.28,75.34l-71.89,119.52c-3.27,5.44-10.59,6.69-15.47,2.67l-68.12-56.18c-3.94-3.24-4.9-8.89-2.25-13.3L111.09,9.11l.35-.57c3.27-5.44,10.59-6.7,15.46-2.67l10.15,8.37,57.98,47.81c3.94,3.24,4.9,8.89,2.25,13.28h0Z"/>
  </g>
</svg>